<svg width="248" height="145" viewBox="0 0 248 145" fill="none" xmlns="http://www.w3.org/2000/svg">
<g id="Group">
<g id="Group_2">
<path id="Vector" d="M72.4565 14.4169L19.9518 52.1454C8.93272 60.0634 6.41881 75.4149 14.3368 86.434C22.2548 97.4531 37.6064 99.967 48.6254 92.049L101.13 54.3205C112.149 46.4025 114.663 31.0509 106.745 20.0319C98.8272 9.01277 83.4756 6.49885 72.4565 14.4169Z" fill="#FD2B25"/>
<path id="Vector_2" d="M34.3985 98.5782C33.0059 98.5782 31.5139 98.4788 30.1214 98.1804C23.1586 97.0862 17.091 93.207 12.9134 87.5373C8.83517 81.7681 7.14421 74.8053 8.33783 67.8426C9.43198 60.8798 13.3112 54.8122 18.9809 50.6346L71.5002 12.9361C77.2693 8.8579 84.2321 7.16694 91.1949 8.36056C98.1577 9.45471 104.225 13.334 108.403 19.0037C112.481 24.7728 114.172 31.7356 112.978 38.6984C111.884 45.6611 108.005 51.7287 102.335 55.9064L49.8161 93.6048C45.2405 96.8873 39.9687 98.5782 34.498 98.5782H34.3985ZM86.8183 11.643C82.1433 11.643 77.4683 13.135 73.589 15.9201L21.0698 53.6186C16.0964 57.1995 12.9134 62.3718 11.9187 68.4394C10.924 74.4075 12.3166 80.475 15.8974 85.349C19.4783 90.3224 24.6506 93.5054 30.7182 94.5001C36.6863 95.4947 42.7538 94.1022 47.6278 90.5213L100.147 52.8229C105.12 49.242 108.303 44.0697 109.298 38.0021C110.293 32.034 108.9 25.9664 105.319 21.0925C101.739 16.1191 96.5661 12.9361 90.4986 11.9414C89.305 11.7425 88.0119 11.643 86.8183 11.643Z" fill="#1E1E1E"/>
</g>
<g id="Group_3">
<path id="Vector_3" d="M48.6794 52.2311C37.6603 44.3131 22.3088 46.827 14.3908 57.8461C6.47278 68.8651 8.98669 84.2167 20.0058 92.1347L72.5105 129.863C83.5296 137.781 98.8811 135.267 106.799 124.248C114.717 113.229 112.203 97.8776 101.184 89.9596L48.6794 52.2311Z" fill="#1F86FB"/>
<path id="Vector_4" d="M86.8183 136.276C81.3475 136.276 75.9762 134.585 71.5001 131.303L18.9809 93.6045C7.14419 85.1497 4.45855 68.5385 12.9134 56.7018C16.9916 50.9326 23.1586 47.1528 30.1214 46.0587C37.0841 44.9645 44.0469 46.556 49.8161 50.6342L102.335 88.3327C114.172 96.7875 116.858 113.399 108.403 125.235C104.325 131.005 98.1576 134.784 91.1949 135.878C89.7028 136.077 88.3103 136.276 86.9177 136.276H86.8183ZM34.3985 49.4406C33.2049 49.4406 31.9118 49.5401 30.7182 49.739C24.7501 50.7337 19.4783 54.0161 15.8974 58.8901C12.3165 63.8635 10.924 69.8316 11.9187 75.7997C12.9134 81.7678 16.1958 87.0396 21.0697 90.6204L73.589 128.319C78.5624 131.9 84.5305 133.292 90.4986 132.298C96.4667 131.303 101.738 128.021 105.319 123.147C108.9 118.173 110.293 112.205 109.298 106.237C108.303 100.269 105.021 94.997 100.147 91.4162L47.6278 53.7177C43.7485 50.9326 39.173 49.4406 34.3985 49.4406Z" fill="#1E1E1E"/>
</g>
<g id="Group_4">
<path id="Vector_5" d="M199.375 52.2138L146.87 89.9422C135.851 97.8602 133.337 113.212 141.255 124.231C149.173 135.25 164.524 137.764 175.543 129.846L228.048 92.1174C239.067 84.1993 241.581 68.8478 233.663 57.8287C225.745 46.8096 210.394 44.2957 199.375 52.2138Z" fill="#FFA600"/>
<path id="Vector_6" d="M161.221 136.276C152.965 136.276 144.908 132.497 139.735 125.335C131.281 113.498 133.966 96.9864 145.803 88.4322L198.322 50.7337C204.091 46.6555 211.054 44.9645 218.017 46.1582C224.98 47.2523 231.047 51.1316 235.225 56.8013C243.68 68.638 240.994 85.1497 229.157 93.704L176.638 131.402C171.963 134.784 166.592 136.376 161.221 136.376V136.276ZM213.64 49.4406C208.965 49.4406 204.29 50.9326 200.411 53.7178L147.892 91.4162C137.746 98.7769 135.359 113.001 142.719 123.147C150.08 133.292 164.304 135.68 174.45 128.319L226.969 90.6205C237.115 83.2598 239.502 69.0359 232.141 58.8901C228.561 53.9167 223.388 50.7337 217.321 49.739C216.127 49.5401 214.834 49.4406 213.64 49.4406Z" fill="#1E1E1E"/>
</g>
<g id="Group_5">
<path id="Vector_7" d="M175.502 14.3375C164.483 6.41951 149.132 8.93344 141.214 19.9525C133.295 30.9716 135.809 46.3231 146.828 54.2411L199.333 91.9696C210.352 99.8876 225.704 97.3737 233.622 86.3546C241.54 75.3356 239.026 59.984 228.007 52.066L175.502 14.3375Z" fill="#00AA47"/>
<path id="Vector_8" d="M213.64 98.5778C208.17 98.5778 202.798 96.8868 198.322 93.6044L145.803 55.9059C133.966 47.4511 131.281 30.8399 139.735 19.0032C148.19 7.16645 164.801 4.48082 176.638 12.9356L229.157 50.6341C240.994 59.0889 243.68 75.7001 235.225 87.5368C231.147 93.306 224.98 97.0857 218.017 98.1799C216.525 98.3788 215.132 98.5778 213.74 98.5778H213.64ZM142.719 21.092C139.139 26.0654 137.746 32.0335 138.741 38.0016C139.735 43.9697 143.018 49.2415 147.892 52.8224L200.411 90.5209C205.384 94.1017 211.353 95.4943 217.321 94.4996C223.289 93.5049 228.561 90.2225 232.141 85.3485C235.722 80.3751 237.115 74.407 236.12 68.4389C235.125 62.4708 231.843 57.199 226.969 53.6181L174.45 15.9197C164.304 8.55902 150.08 10.9463 142.719 21.092Z" fill="#1E1E1E"/>
</g>
</g>
</svg>
