<svg width="58" height="56" viewBox="0 0 58 56" fill="none" xmlns="http://www.w3.org/2000/svg">
<g id="_&#235;&#160;&#136;&#236;&#157;&#180;&#236;&#150;&#180;_1" clip-path="url(#clip0_27_11126)">
<path id="Vector" d="M56.26 19.75C56.26 9.67 48.09 1.5 38.01 1.5C34.68 1.5 31.57 2.39 28.88 3.95C26.19 2.4 23.08 1.5 19.75 1.5C9.67 1.5 1.5 9.67 1.5 19.75C1.5 26.51 5.17 32.4 10.63 35.55C10.63 45.63 18.8 53.8 28.88 53.8C38.96 53.8 47.13 45.63 47.13 35.55C52.58 32.39 56.25 26.5 56.25 19.75H56.26Z" fill="#F0F0F0"/>
<path id="Vector_2" d="M52.3 33.37C52.39 33.27 52.48 33.18 52.57 33.08C52.76 32.87 52.94 32.66 53.12 32.45C53.21 32.34 53.3 32.23 53.39 32.12C53.56 31.91 53.73 31.69 53.89 31.47C53.98 31.35 54.06 31.23 54.15 31.11C54.3 30.89 54.45 30.68 54.59 30.46C54.68 30.33 54.76 30.19 54.84 30.06C54.97 29.84 55.1 29.62 55.23 29.4C55.31 29.25 55.39 29.11 55.47 28.96C55.58 28.74 55.7 28.52 55.81 28.3C55.89 28.14 55.96 27.98 56.03 27.81C56.13 27.59 56.22 27.38 56.31 27.16C56.38 26.99 56.44 26.81 56.51 26.63C56.59 26.42 56.67 26.2 56.74 25.99C56.8 25.8 56.86 25.61 56.92 25.41C56.98 25.2 57.05 25 57.1 24.79C57.16 24.58 57.2 24.37 57.25 24.16C57.3 23.96 57.35 23.76 57.39 23.56C57.44 23.33 57.47 23.09 57.51 22.86C57.54 22.68 57.57 22.5 57.6 22.31C57.64 22.04 57.66 21.77 57.68 21.49C57.69 21.34 57.71 21.19 57.72 21.04C57.75 20.61 57.76 20.19 57.76 19.76C57.76 8.86 48.9 0 38 0C37.62 0 37.25 0.01 36.88 0.03C36.79 0.03 36.69 0.04 36.6 0.05C36.31 0.07 36.03 0.1 35.74 0.13C35.65 0.14 35.55 0.15 35.46 0.17C35.17 0.21 34.88 0.25 34.59 0.3C34.51 0.31 34.44 0.33 34.36 0.34C34.03 0.4 33.71 0.47 33.38 0.55C33.34 0.55 33.31 0.57 33.27 0.58C32.52 0.76 31.79 0.99 31.08 1.26C31.03 1.28 30.97 1.3 30.92 1.32C30.64 1.43 30.36 1.54 30.09 1.66C29.98 1.71 29.87 1.76 29.76 1.81C29.54 1.91 29.33 2.01 29.12 2.12C29.04 2.16 28.96 2.19 28.88 2.24C26.07 0.77 22.93 0 19.75 0C8.86 0 0 8.86 0 19.75C0 26.49 3.48 32.8 9.15 36.41C9.15 36.44 9.15 36.47 9.15 36.5C9.15 36.65 9.17 36.8 9.18 36.95C9.19 37.13 9.2 37.31 9.22 37.49C9.23 37.64 9.25 37.79 9.27 37.93C9.29 38.11 9.31 38.29 9.34 38.46C9.36 38.61 9.39 38.75 9.41 38.9C9.44 39.07 9.47 39.25 9.5 39.42C9.53 39.57 9.56 39.71 9.6 39.86C9.64 40.03 9.68 40.2 9.72 40.37C9.76 40.51 9.8 40.66 9.84 40.8C9.89 40.97 9.93 41.13 9.98 41.3C10.02 41.44 10.07 41.58 10.12 41.73C10.17 41.89 10.23 42.05 10.28 42.21C10.33 42.35 10.38 42.49 10.44 42.63C10.5 42.79 10.56 42.94 10.63 43.1C10.69 43.24 10.75 43.37 10.81 43.51C10.88 43.66 10.95 43.82 11.02 43.97C11.08 44.1 11.15 44.24 11.22 44.37C11.29 44.52 11.37 44.67 11.45 44.81C11.52 44.94 11.59 45.07 11.66 45.2C11.74 45.34 11.82 45.49 11.91 45.63C11.99 45.76 12.06 45.88 12.14 46.01C12.23 46.15 12.32 46.29 12.41 46.43C12.49 46.55 12.58 46.68 12.66 46.8C12.75 46.93 12.85 47.07 12.95 47.2C13.04 47.32 13.13 47.44 13.22 47.56C13.32 47.69 13.42 47.82 13.52 47.95C13.61 48.07 13.71 48.18 13.8 48.29C13.91 48.41 14.01 48.54 14.12 48.66C14.22 48.77 14.32 48.88 14.42 48.99C14.53 49.11 14.64 49.23 14.76 49.34C14.86 49.45 14.97 49.55 15.07 49.66C15.19 49.77 15.31 49.89 15.42 50C15.53 50.1 15.64 50.2 15.75 50.3C15.87 50.41 16 50.52 16.12 50.62C16.23 50.72 16.35 50.81 16.46 50.91C16.59 51.01 16.72 51.11 16.85 51.21C16.97 51.3 17.09 51.39 17.21 51.48C17.34 51.58 17.48 51.67 17.61 51.77C17.73 51.86 17.85 51.94 17.98 52.02C18.12 52.11 18.26 52.2 18.4 52.29C18.53 52.37 18.65 52.45 18.78 52.53C18.92 52.62 19.07 52.7 19.21 52.78C19.34 52.85 19.47 52.93 19.6 53C19.75 53.08 19.9 53.15 20.04 53.23C20.17 53.3 20.3 53.36 20.44 53.43C20.59 53.5 20.75 53.57 20.9 53.64C21.04 53.7 21.17 53.76 21.31 53.82C21.47 53.89 21.63 53.95 21.78 54.01C21.92 54.06 22.05 54.12 22.19 54.17C22.35 54.23 22.51 54.28 22.68 54.34C22.82 54.39 22.96 54.43 23.1 54.48C23.27 54.53 23.44 54.58 23.6 54.62C23.74 54.66 23.88 54.7 24.02 54.74C24.19 54.78 24.37 54.82 24.54 54.86C24.68 54.89 24.82 54.93 24.96 54.95C25.14 54.99 25.33 55.02 25.51 55.05C25.65 55.07 25.78 55.1 25.92 55.12C26.11 55.15 26.31 55.17 26.51 55.19C26.64 55.21 26.77 55.23 26.9 55.24C27.12 55.26 27.34 55.28 27.56 55.29C27.67 55.29 27.78 55.31 27.89 55.31C28.22 55.33 28.56 55.34 28.89 55.34C29.22 55.34 29.56 55.34 29.89 55.31C30 55.31 30.11 55.29 30.22 55.29C30.44 55.28 30.66 55.26 30.88 55.24C31.01 55.23 31.14 55.21 31.27 55.19C31.47 55.17 31.66 55.14 31.86 55.12C32 55.1 32.13 55.07 32.27 55.05C32.45 55.02 32.64 54.99 32.82 54.95C32.96 54.92 33.1 54.89 33.24 54.85C33.41 54.81 33.59 54.77 33.76 54.73C33.9 54.69 34.04 54.65 34.18 54.61C34.35 54.56 34.52 54.52 34.68 54.47C34.82 54.43 34.96 54.38 35.11 54.33C35.27 54.28 35.43 54.22 35.59 54.17C35.73 54.12 35.87 54.06 36.01 54.01C36.16 53.95 36.32 53.89 36.47 53.83C36.61 53.77 36.75 53.71 36.89 53.65C37.04 53.58 37.19 53.52 37.34 53.45C37.48 53.38 37.62 53.31 37.75 53.24C37.89 53.17 38.04 53.1 38.18 53.02C38.32 52.95 38.45 52.87 38.59 52.79C38.73 52.71 38.86 52.64 39 52.55C39.14 52.47 39.27 52.38 39.4 52.3C39.53 52.22 39.66 52.13 39.79 52.05C39.92 51.96 40.05 51.87 40.18 51.78C40.3 51.69 40.43 51.61 40.55 51.52C40.68 51.42 40.81 51.33 40.94 51.23C41.06 51.14 41.18 51.05 41.29 50.95C41.42 50.85 41.54 50.74 41.67 50.63C41.78 50.53 41.89 50.44 42 50.34C42.12 50.23 42.25 50.12 42.37 50C42.48 49.9 42.58 49.8 42.68 49.7C42.8 49.58 42.92 49.46 43.04 49.34C43.14 49.24 43.24 49.14 43.33 49.03C43.45 48.9 43.56 48.78 43.67 48.65C43.76 48.55 43.85 48.44 43.94 48.33C44.05 48.2 44.16 48.06 44.27 47.93C44.36 47.82 44.44 47.72 44.52 47.61C44.63 47.47 44.73 47.33 44.84 47.19C44.92 47.08 45 46.97 45.08 46.86C45.18 46.71 45.28 46.57 45.38 46.42C45.45 46.31 45.52 46.2 45.6 46.08C45.7 45.93 45.79 45.77 45.88 45.62C45.95 45.51 46.01 45.39 46.08 45.28C46.17 45.12 46.26 44.96 46.34 44.8C46.4 44.69 46.46 44.57 46.52 44.45C46.6 44.28 46.69 44.12 46.76 43.95C46.81 43.83 46.87 43.72 46.92 43.6C47 43.43 47.07 43.26 47.14 43.08C47.19 42.96 47.23 42.84 47.28 42.72C47.35 42.54 47.42 42.37 47.48 42.19C47.52 42.07 47.56 41.95 47.6 41.83C47.66 41.65 47.72 41.47 47.78 41.29C47.82 41.17 47.85 41.04 47.89 40.92C47.94 40.74 47.99 40.55 48.04 40.37C48.07 40.24 48.1 40.11 48.13 39.99C48.17 39.8 48.21 39.62 48.25 39.43C48.28 39.3 48.3 39.16 48.32 39.03C48.35 38.84 48.39 38.66 48.41 38.47C48.43 38.33 48.45 38.19 48.46 38.05C48.48 37.87 48.51 37.68 48.52 37.5C48.53 37.35 48.54 37.2 48.55 37.05C48.56 36.87 48.58 36.69 48.59 36.52C48.59 36.5 48.59 36.47 48.59 36.45C48.62 36.43 48.65 36.41 48.68 36.39C48.94 36.22 49.2 36.04 49.46 35.86C49.55 35.8 49.64 35.73 49.73 35.66C49.98 35.48 50.22 35.29 50.45 35.1C50.54 35.03 50.63 34.95 50.72 34.87C50.95 34.68 51.17 34.48 51.39 34.28C51.48 34.19 51.57 34.11 51.66 34.02C51.87 33.82 52.07 33.61 52.27 33.41L52.3 33.37ZM26.33 52.12C18.3 50.89 12.13 43.93 12.13 35.56C12.13 35.47 12.12 35.38 12.1 35.29C12.1 35.27 12.1 35.26 12.09 35.24C12.05 35.06 11.98 34.89 11.88 34.74C11.88 34.74 11.88 34.73 11.87 34.72C11.75 34.54 11.58 34.38 11.38 34.26C6.21 31.27 3 25.71 3 19.76C3 10.52 10.52 3 19.75 3C21.85 3 23.93 3.4 25.88 4.17C21.24 7.79 18.25 13.42 18.25 19.75C18.25 20.58 18.92 21.25 19.75 21.25C20.58 21.25 21.25 20.58 21.25 19.75C21.25 13.49 24.7 8.03 29.8 5.15C30.01 5.03 30.21 4.92 30.42 4.82C30.5 4.78 30.58 4.74 30.66 4.7C30.96 4.55 31.26 4.42 31.57 4.29C31.61 4.28 31.64 4.26 31.68 4.25C31.96 4.13 32.25 4.03 32.54 3.93C32.6 3.91 32.66 3.89 32.72 3.87C33.02 3.77 33.33 3.67 33.64 3.59C33.66 3.59 33.67 3.58 33.69 3.58C34.36 3.4 35.04 3.27 35.72 3.17C35.8 3.16 35.87 3.15 35.95 3.14C36.21 3.11 36.48 3.08 36.74 3.06C36.83 3.06 36.91 3.05 37 3.04C37.34 3.02 37.67 3.01 38.01 3.01C47.25 3.01 54.76 10.52 54.76 19.76C54.76 24.88 52.39 29.69 48.45 32.84C47.61 26.87 44.06 21.52 38.77 18.45C38.05 18.03 37.13 18.28 36.72 19C36.3 19.72 36.55 20.64 37.27 21.05C42.44 24.04 45.65 29.6 45.65 35.56C45.65 44.8 38.14 52.31 28.9 52.31C28.03 52.31 27.18 52.24 26.35 52.12H26.33Z" fill="#1D1E1D"/>
<path id="Vector_3" d="M22.9 35.75C22.9 36.58 22.23 37.25 21.4 37.25C20.57 37.25 19.9 36.58 19.9 35.75C19.9 34.92 20.57 34.25 21.4 34.25C22.23 34.25 22.9 34.92 22.9 35.75Z" fill="#1D1E1D"/>
<path id="Vector_4" d="M30.39 35.75C30.39 36.58 29.72 37.25 28.89 37.25C28.06 37.25 27.39 36.58 27.39 35.75C27.39 34.92 28.06 34.25 28.89 34.25C29.72 34.25 30.39 34.92 30.39 35.75Z" fill="#1D1E1D"/>
</g>
<defs>
<clipPath id="clip0_27_11126">
<rect width="57.76" height="55.32" fill="white"/>
</clipPath>
</defs>
</svg>
