<svg width="58" height="56" viewBox="0 0 58 56" fill="none" xmlns="http://www.w3.org/2000/svg">
<g id="_&#235;&#160;&#136;&#236;&#157;&#180;&#236;&#150;&#180;_1" clip-path="url(#clip0_27_11152)">
<path id="Vector" d="M1.5 35.56C1.5 45.64 9.67 53.81 19.75 53.81C23.08 53.81 26.19 52.92 28.88 51.36C31.57 52.91 34.68 53.81 38.01 53.81C48.09 53.81 56.26 45.64 56.26 35.56C56.26 28.8 52.59 22.91 47.13 19.76C47.13 9.68001 38.96 1.51001 28.88 1.51001C18.8 1.51001 10.63 9.67001 10.63 19.75C5.18 22.91 1.51 28.8 1.51 35.55L1.5 35.56Z" fill="#F9AB00"/>
<path id="Vector_2" d="M5.46 21.95C5.37 22.05 5.28 22.14 5.19 22.24C5 22.45 4.82 22.66 4.64 22.87C4.55 22.98 4.46 23.09 4.37 23.2C4.2 23.41 4.03 23.63 3.87 23.85C3.78 23.97 3.7 24.09 3.61 24.21C3.46 24.43 3.31 24.64 3.17 24.86C3.08 24.99 3 25.13 2.92 25.26C2.79 25.48 2.66 25.7 2.53 25.92C2.45 26.07 2.37 26.21 2.29 26.36C2.18 26.58 2.06 26.8 1.95 27.02C1.87 27.18 1.8 27.34 1.73 27.51C1.63 27.73 1.54 27.94 1.45 28.16C1.38 28.33 1.32 28.51 1.25 28.69C1.17 28.9 1.09 29.12 1.02 29.33C0.96 29.52 0.9 29.71 0.84 29.91C0.78 30.12 0.71 30.32 0.66 30.53C0.6 30.74 0.56 30.95 0.51 31.16C0.46 31.36 0.41 31.56 0.37 31.76C0.32 31.99 0.29 32.23 0.25 32.46C0.22 32.64 0.19 32.82 0.16 33.01C0.12 33.28 0.1 33.55 0.08 33.83C0.07 33.98 0.05 34.13 0.04 34.28C0.01 34.71 0 35.13 0 35.56C0 46.45 8.86 55.31 19.75 55.31C20.13 55.31 20.5 55.3 20.87 55.28C20.96 55.28 21.06 55.27 21.15 55.26C21.44 55.24 21.72 55.21 22.01 55.18C22.1 55.17 22.2 55.16 22.29 55.14C22.58 55.1 22.87 55.06 23.16 55.01C23.24 55 23.31 54.98 23.39 54.97C23.72 54.91 24.04 54.84 24.37 54.76C24.41 54.76 24.44 54.74 24.48 54.73C25.23 54.55 25.96 54.32 26.67 54.05C26.72 54.03 26.78 54.01 26.83 53.99C27.11 53.88 27.39 53.77 27.66 53.65C27.77 53.6 27.88 53.55 27.99 53.5C28.21 53.4 28.42 53.3 28.63 53.19C28.71 53.15 28.79 53.12 28.87 53.07C31.68 54.54 34.82 55.31 38 55.31C48.89 55.31 57.75 46.45 57.75 35.56C57.75 28.82 54.27 22.51 48.6 18.9C48.6 18.87 48.6 18.84 48.6 18.81C48.6 18.66 48.58 18.51 48.57 18.36C48.56 18.18 48.55 18 48.53 17.82C48.52 17.67 48.5 17.52 48.48 17.38C48.46 17.2 48.44 17.02 48.41 16.85C48.39 16.7 48.36 16.56 48.34 16.41C48.31 16.24 48.28 16.06 48.25 15.89C48.22 15.74 48.19 15.6 48.15 15.45C48.11 15.28 48.07 15.11 48.03 14.94C47.99 14.8 47.95 14.65 47.91 14.51C47.86 14.34 47.82 14.18 47.77 14.01C47.73 13.87 47.68 13.73 47.63 13.59C47.58 13.43 47.52 13.27 47.47 13.11C47.42 12.97 47.37 12.83 47.31 12.69C47.25 12.53 47.19 12.38 47.12 12.22C47.06 12.08 47 11.95 46.94 11.81C46.87 11.66 46.8 11.5 46.73 11.35C46.67 11.21 46.6 11.08 46.53 10.95C46.46 10.8 46.38 10.65 46.3 10.51C46.23 10.38 46.16 10.25 46.09 10.12C46.01 9.97998 45.93 9.82998 45.84 9.68998C45.76 9.55998 45.69 9.43998 45.61 9.30998C45.52 9.16998 45.43 9.02998 45.34 8.88998C45.26 8.76998 45.17 8.63998 45.09 8.51998C45 8.38998 44.9 8.24998 44.8 8.11998C44.71 7.99998 44.62 7.87998 44.53 7.75998C44.43 7.62998 44.33 7.49998 44.23 7.36998C44.14 7.24998 44.04 7.13998 43.95 7.02998C43.84 6.90998 43.74 6.77998 43.63 6.65998C43.53 6.54998 43.43 6.43998 43.33 6.32998C43.22 6.20998 43.11 6.08998 42.99 5.97998C42.89 5.86998 42.78 5.76998 42.68 5.65998C42.56 5.54998 42.44 5.42998 42.33 5.31998C42.22 5.21998 42.11 5.11998 42 5.01998C41.88 4.90998 41.75 4.79998 41.63 4.69998C41.52 4.59998 41.4 4.50998 41.29 4.40998C41.16 4.30998 41.03 4.20998 40.9 4.10998C40.78 4.01998 40.66 3.92998 40.54 3.83998C40.41 3.73998 40.27 3.64998 40.14 3.54998C40.02 3.45998 39.9 3.37998 39.77 3.29998C39.63 3.20998 39.49 3.11998 39.35 3.02998C39.22 2.94998 39.1 2.86998 38.97 2.78998C38.83 2.69998 38.68 2.61998 38.54 2.53998C38.41 2.46998 38.28 2.38998 38.15 2.31998C38 2.23998 37.85 2.16998 37.71 2.08998C37.58 2.01998 37.45 1.95998 37.31 1.88998C37.16 1.81998 37 1.74998 36.85 1.67998C36.71 1.61998 36.58 1.55998 36.44 1.49998C36.28 1.42998 36.12 1.36998 35.97 1.30998C35.83 1.25998 35.7 1.19998 35.56 1.14998C35.4 1.08998 35.24 1.03998 35.07 0.97998C34.93 0.92998 34.79 0.88998 34.65 0.83998C34.48 0.78998 34.31 0.73998 34.15 0.69998C34.01 0.65998 33.87 0.61998 33.73 0.57998C33.56 0.53998 33.38 0.499981 33.21 0.45998C33.07 0.42998 32.93 0.38998 32.79 0.36998C32.61 0.32998 32.42 0.29998 32.24 0.26998C32.1 0.24998 31.97 0.21998 31.83 0.19998C31.64 0.16998 31.44 0.14998 31.24 0.12998C31.11 0.10998 30.98 0.0899805 30.85 0.0799805C30.63 0.0599805 30.41 0.0399805 30.19 0.0299805C30.08 0.0299805 29.97 0.00998047 29.86 0.00998047C29.53 -0.0100195 29.19 -0.0200195 28.86 -0.0200195C28.53 -0.0200195 28.19 -0.0200195 27.86 0.00998047C27.75 0.00998047 27.64 0.0299805 27.53 0.0299805C27.31 0.0399805 27.09 0.0599805 26.87 0.0799805C26.74 0.0899805 26.61 0.10998 26.48 0.12998C26.28 0.14998 26.09 0.17998 25.89 0.19998C25.75 0.21998 25.62 0.24998 25.48 0.26998C25.3 0.29998 25.11 0.32998 24.93 0.36998C24.79 0.39998 24.65 0.42998 24.51 0.46998C24.34 0.50998 24.16 0.54998 23.99 0.58998C23.85 0.62998 23.71 0.66998 23.57 0.70998C23.4 0.75998 23.23 0.79998 23.07 0.84998C22.93 0.88998 22.79 0.93998 22.64 0.98998C22.48 1.03998 22.32 1.09998 22.16 1.14998C22.02 1.19998 21.88 1.25998 21.74 1.30998C21.58 1.36998 21.43 1.42998 21.28 1.48998C21.14 1.54998 21 1.60998 20.86 1.66998C20.71 1.73998 20.56 1.79998 20.41 1.86998C20.27 1.93998 20.13 2.00998 20 2.07998C19.86 2.14998 19.71 2.21998 19.57 2.29998C19.43 2.36998 19.3 2.44998 19.16 2.52998C19.02 2.60998 18.89 2.67998 18.75 2.76998C18.61 2.84998 18.48 2.93998 18.35 3.01998C18.22 3.09998 18.09 3.18998 17.96 3.26998C17.83 3.35998 17.7 3.44998 17.57 3.53998C17.45 3.62998 17.32 3.70998 17.2 3.79998C17.07 3.89998 16.94 3.98998 16.81 4.08998C16.69 4.17998 16.57 4.26998 16.46 4.36998C16.33 4.46998 16.21 4.57998 16.08 4.68998C15.97 4.78998 15.86 4.87998 15.75 4.97998C15.63 5.08998 15.5 5.19998 15.38 5.31998C15.27 5.41998 15.17 5.51998 15.07 5.61998C14.95 5.73998 14.83 5.85998 14.71 5.97998C14.61 6.07998 14.51 6.17998 14.42 6.28998C14.3 6.41998 14.19 6.53998 14.08 6.66998C13.99 6.76998 13.9 6.87998 13.81 6.98998C13.7 7.11998 13.59 7.25998 13.48 7.38998C13.39 7.49998 13.31 7.59998 13.23 7.70998C13.12 7.84998 13.02 7.98998 12.91 8.12998C12.83 8.23998 12.75 8.34998 12.67 8.45998C12.57 8.60998 12.47 8.74998 12.37 8.89998C12.3 9.00998 12.23 9.11998 12.15 9.23998C12.05 9.38998 11.96 9.54998 11.87 9.69998C11.8 9.80998 11.74 9.92998 11.67 10.04C11.58 10.2 11.49 10.36 11.41 10.52C11.35 10.63 11.29 10.75 11.23 10.87C11.15 11.04 11.06 11.2 10.99 11.37C10.94 11.49 10.88 11.6 10.83 11.72C10.75 11.89 10.68 12.06 10.61 12.24C10.56 12.36 10.52 12.48 10.47 12.6C10.4 12.78 10.33 12.95 10.27 13.13C10.23 13.25 10.19 13.37 10.15 13.49C10.09 13.67 10.03 13.85 9.97 14.03C9.93 14.15 9.9 14.28 9.86 14.4C9.81 14.58 9.76 14.77 9.71 14.95C9.68 15.08 9.65 15.21 9.62 15.33C9.58 15.51 9.54 15.7 9.5 15.89C9.47 16.02 9.45 16.16 9.43 16.29C9.4 16.48 9.36 16.66 9.34 16.85C9.32 16.99 9.3 17.13 9.29 17.27C9.27 17.45 9.24 17.64 9.23 17.82C9.22 17.97 9.21 18.12 9.2 18.27C9.19 18.45 9.17 18.63 9.16 18.8C9.16 18.82 9.16 18.85 9.16 18.87C9.13 18.89 9.1 18.91 9.07 18.93C8.81 19.1 8.55 19.28 8.29 19.46C8.2 19.52 8.11 19.59 8.02 19.66C7.77 19.84 7.53 20.03 7.3 20.22C7.21 20.29 7.12 20.37 7.03 20.45C6.8 20.64 6.58 20.84 6.36 21.04C6.27 21.13 6.18 21.21 6.09 21.3C5.88 21.5 5.68 21.71 5.48 21.91L5.46 21.95ZM31.43 3.19998C39.46 4.42998 45.63 11.39 45.63 19.76C45.63 19.85 45.64 19.94 45.66 20.03C45.66 20.05 45.66 20.06 45.67 20.08C45.71 20.26 45.78 20.43 45.88 20.58C45.88 20.58 45.88 20.59 45.89 20.6C46.01 20.78 46.18 20.94 46.38 21.06C51.55 24.05 54.76 29.61 54.76 35.56C54.76 44.8 47.25 52.31 38.01 52.31C35.91 52.31 33.83 51.91 31.88 51.14C36.52 47.52 39.51 41.89 39.51 35.56C39.51 34.73 38.84 34.06 38.01 34.06C37.18 34.06 36.51 34.73 36.51 35.56C36.51 41.82 33.06 47.28 27.96 50.16C27.75 50.28 27.55 50.39 27.34 50.49C27.26 50.53 27.18 50.57 27.1 50.61C26.8 50.76 26.5 50.89 26.19 51.02C26.15 51.03 26.12 51.05 26.08 51.06C25.8 51.18 25.51 51.28 25.22 51.38C25.16 51.4 25.1 51.42 25.04 51.44C24.74 51.54 24.43 51.63 24.12 51.72C24.1 51.72 24.08 51.73 24.07 51.73C23.4 51.91 22.72 52.04 22.04 52.14C21.96 52.15 21.89 52.16 21.81 52.17C21.55 52.2 21.28 52.23 21.02 52.25C20.93 52.25 20.85 52.26 20.76 52.27C20.42 52.29 20.09 52.3 19.75 52.3C10.51 52.3 3 44.79 3 35.55C3 30.43 5.37 25.62 9.31 22.47C10.15 28.44 13.7 33.79 18.99 36.86C19.71 37.28 20.63 37.03 21.04 36.31C21.46 35.59 21.21 34.67 20.49 34.26C15.32 31.27 12.11 25.71 12.11 19.75C12.11 10.51 19.62 2.99998 28.86 2.99998C29.73 2.99998 30.58 3.06998 31.41 3.18998L31.43 3.19998Z" fill="#1D1E1D"/>
</g>
<defs>
<clipPath id="clip0_27_11152">
<rect width="57.76" height="55.32" fill="white"/>
</clipPath>
</defs>
</svg>
