<svg width="76" height="58" viewBox="0 0 76 58" fill="none" xmlns="http://www.w3.org/2000/svg">
<g id="_&#235;&#160;&#136;&#236;&#157;&#180;&#236;&#150;&#180;_1" clip-path="url(#clip0_27_11144)">
<path id="Vector" d="M38 1.5C31.18 1.5 25.24 5.24 22.11 10.78C21.34 10.68 20.55 10.62 19.75 10.62C9.67 10.63 1.5 18.8 1.5 28.88C1.5 38.96 9.67 47.13 19.75 47.13C20.55 47.13 21.34 47.07 22.11 46.97C25.24 52.51 31.18 56.25 38 56.25C44.82 56.25 50.76 52.51 53.89 46.97C54.66 47.07 55.45 47.13 56.25 47.13C66.33 47.13 74.5 38.96 74.5 28.88C74.5 18.8 66.33 10.63 56.25 10.63C55.45 10.63 54.66 10.69 53.89 10.79C50.76 5.25 44.82 1.51 38 1.51V1.5Z" fill="#F0F0F0"/>
<path id="Vector_2" d="M51.68 5.52002C51.58 5.43002 51.48 5.33002 51.38 5.24002C51.18 5.05002 50.97 4.87002 50.76 4.69002C50.65 4.60002 50.54 4.50002 50.42 4.41002C50.21 4.24002 50 4.08002 49.78 3.92002C49.66 3.83002 49.53 3.74002 49.41 3.65002C49.2 3.50002 48.98 3.35002 48.76 3.21002C48.62 3.12002 48.49 3.04002 48.35 2.95002C48.13 2.82002 47.92 2.69002 47.7 2.56002C47.55 2.48002 47.4 2.40002 47.25 2.32002C47.03 2.21002 46.82 2.09002 46.6 1.99002C46.44 1.91002 46.27 1.84002 46.11 1.76002C45.9 1.66002 45.68 1.57002 45.46 1.48002C45.28 1.41002 45.1 1.34002 44.92 1.27002C44.71 1.19002 44.5 1.11002 44.28 1.04002C44.09 0.98002 43.89 0.92002 43.7 0.86002C43.49 0.80002 43.29 0.73002 43.08 0.68002C42.87 0.62002 42.66 0.58002 42.44 0.53002C42.24 0.48002 42.04 0.430019 41.84 0.39002C41.61 0.340019 41.37 0.31002 41.13 0.27002C40.95 0.24002 40.76 0.21002 40.58 0.18002C40.31 0.14002 40.03 0.12002 39.75 0.10002C39.6 0.0900195 39.45 0.0700195 39.3 0.0600195C38.87 0.0300195 38.44 0.0200195 38 0.0200195C37.61 0.0200195 37.22 0.0300195 36.83 0.0600195C36.73 0.0600195 36.63 0.0800195 36.54 0.0800195C36.23 0.10002 35.93 0.13002 35.63 0.17002C35.54 0.18002 35.46 0.19002 35.37 0.20002C35.01 0.25002 34.65 0.31002 34.29 0.37002C34.27 0.37002 34.26 0.37002 34.24 0.37002C31.79 0.84002 29.51 1.77002 27.47 3.06002C27.42 3.09002 27.37 3.12002 27.32 3.16002C27.05 3.34002 26.78 3.52002 26.52 3.71002C26.45 3.76002 26.39 3.80002 26.32 3.85002C26.02 4.07002 25.72 4.30002 25.43 4.54002C25.37 4.59002 25.31 4.64002 25.26 4.69002C25.04 4.87002 24.83 5.06002 24.62 5.25002C24.49 5.37002 24.37 5.48002 24.25 5.60002C24.11 5.73002 23.98 5.87002 23.85 6.00002C23.72 6.14002 23.59 6.27002 23.46 6.41002C23.34 6.54002 23.22 6.67002 23.11 6.81002C22.89 7.06002 22.68 7.31002 22.48 7.57002C22.37 7.72002 22.25 7.86002 22.14 8.01002C22.03 8.16002 21.92 8.32002 21.81 8.48002C21.7 8.63002 21.6 8.79002 21.5 8.94002C21.44 9.03002 21.38 9.11002 21.32 9.20002C21.29 9.20002 21.26 9.20002 21.23 9.20002C21.09 9.19002 20.96 9.18002 20.82 9.17002C20.46 9.15002 20.11 9.14002 19.76 9.14002C8.86 9.13002 0 17.99 0 28.88C0 39.77 8.86 48.63 19.75 48.63C20.12 48.63 20.49 48.61 20.87 48.59C20.99 48.59 21.1 48.58 21.22 48.57C21.25 48.57 21.28 48.57 21.31 48.57C24.92 54.26 31.23 57.76 38 57.76C44.77 57.76 51.08 54.26 54.69 48.57C55.22 48.61 55.74 48.64 56.25 48.64C67.14 48.64 76 39.78 76 28.89C76 18 67.14 9.14002 56.25 9.14002C55.74 9.14002 55.22 9.16002 54.69 9.20002C54.68 9.18002 54.66 9.16002 54.65 9.14002C54.48 8.87002 54.3 8.61002 54.12 8.35002C54.06 8.26002 53.99 8.17002 53.93 8.08002C53.75 7.83002 53.56 7.59002 53.37 7.36002C53.29 7.27002 53.22 7.17002 53.14 7.08002C52.95 6.85002 52.75 6.63002 52.55 6.42002C52.46 6.33002 52.38 6.23002 52.29 6.14002C52.09 5.93002 51.89 5.73002 51.68 5.53002V5.52002ZM73.01 28.88C73.01 38.12 65.5 45.63 56.26 45.63C55.57 45.63 54.84 45.58 54.09 45.49C53.48 45.41 52.89 45.71 52.59 46.24C49.62 51.49 44.03 54.76 38 54.76C32.69 54.76 27.72 52.22 24.58 48.03C29.75 46.72 34.26 43.36 36.95 38.6C37.08 38.37 37.15 38.11 37.15 37.86C37.15 37.34 36.88 36.83 36.39 36.55C35.67 36.14 34.75 36.4 34.34 37.12C31.73 41.73 27.1 44.81 21.93 45.49C21.93 45.49 21.92 45.49 21.91 45.49C21.17 45.59 20.44 45.63 19.74 45.63C10.5 45.63 2.99 38.12 2.99 28.88C2.99 19.64 10.52 12.13 19.75 12.13C19.75 12.13 19.77 12.13 19.78 12.13C18.79 14.48 18.25 17.05 18.25 19.75C18.25 23.22 19.16 26.64 20.89 29.63C21.31 30.35 22.22 30.59 22.94 30.18C23.66 29.76 23.9 28.85 23.49 28.13C22.02 25.6 21.25 22.7 21.25 19.76C21.25 16.82 22.08 13.81 23.53 11.34C23.64 11.15 23.75 10.97 23.86 10.79C23.93 10.68 24 10.57 24.07 10.46C24.24 10.21 24.41 9.97002 24.59 9.73002C24.67 9.62002 24.76 9.52002 24.84 9.41002C24.96 9.26002 25.08 9.11002 25.2 8.96002C25.29 8.85002 25.39 8.74002 25.49 8.63002C25.63 8.48002 25.77 8.33002 25.91 8.18002C25.99 8.10002 26.07 8.01002 26.15 7.93002C26.37 7.71002 26.59 7.50002 26.82 7.29002C26.89 7.22002 26.97 7.16002 27.04 7.10002C27.23 6.94002 27.42 6.77002 27.62 6.62002C27.68 6.57002 27.75 6.52002 27.81 6.47002C28.36 6.05002 28.94 5.66002 29.54 5.31002C29.54 5.31002 29.56 5.30002 29.57 5.29002C31.44 4.20002 33.51 3.48002 35.69 3.17002C35.75 3.17002 35.81 3.15002 35.87 3.15002C36.15 3.11002 36.43 3.09002 36.71 3.07002C36.79 3.07002 36.88 3.06002 36.96 3.05002C37.3 3.03002 37.65 3.02002 37.99 3.02002C44.01 3.02002 49.6 6.28002 52.58 11.54C52.78 11.89 53.11 12.14 53.49 12.25C53.58 12.27 53.67 12.29 53.76 12.3C53.76 12.3 53.78 12.3 53.79 12.3C53.89 12.3 53.99 12.3 54.09 12.3C54.83 12.2 55.56 12.16 56.25 12.16C65.49 12.16 73 19.67 73 28.91L73.01 28.88Z" fill="#1D1E1D"/>
</g>
<defs>
<clipPath id="clip0_27_11144">
<rect width="76.01" height="57.76" fill="white"/>
</clipPath>
</defs>
</svg>
