<svg width="58" height="58" viewBox="0 0 58 58" fill="none" xmlns="http://www.w3.org/2000/svg">
<g id="_&#235;&#160;&#136;&#236;&#157;&#180;&#236;&#150;&#180;_1" clip-path="url(#clip0_27_11132)">
<path id="Vector" d="M56.26 19.75C56.26 9.67 48.09 1.5 38.01 1.5C34.68 1.5 31.57 2.39 28.88 3.95C26.19 2.4 23.08 1.5 19.75 1.5C9.67 1.5 1.5 9.67 1.5 19.75C1.5 23.08 2.39 26.19 3.95 28.88C2.4 31.57 1.5 34.68 1.5 38.01C1.5 48.09 9.67 56.26 19.75 56.26C23.08 56.26 26.19 55.37 28.88 53.81C31.57 55.36 34.68 56.26 38.01 56.26C48.09 56.26 56.26 48.09 56.26 38.01C56.26 34.68 55.37 31.57 53.81 28.88C55.36 26.19 56.26 23.08 56.26 19.75Z" fill="#E83823"/>
<path id="Vector_2" d="M55.57 28.78C55.7 28.53 55.82 28.27 55.94 28.02C55.99 27.9 56.05 27.78 56.1 27.66C56.21 27.41 56.31 27.16 56.41 26.91C56.46 26.77 56.51 26.64 56.56 26.5C56.65 26.26 56.73 26.02 56.81 25.78C56.86 25.62 56.91 25.47 56.95 25.31C57.02 25.08 57.08 24.85 57.14 24.62C57.19 24.44 57.23 24.26 57.27 24.08C57.32 23.86 57.37 23.65 57.41 23.43C57.45 23.22 57.48 23.01 57.51 22.8C57.54 22.61 57.57 22.41 57.6 22.22C57.63 21.97 57.65 21.71 57.67 21.46C57.68 21.3 57.7 21.15 57.71 20.99C57.74 20.58 57.75 20.16 57.75 19.75C57.76 8.85999 48.9 -9.76585e-06 38 -9.76585e-06C37.62 -9.76585e-06 37.25 0.00999023 36.88 0.0299902C36.79 0.0299902 36.69 0.0399902 36.6 0.0499902C36.31 0.0699902 36.03 0.0999902 35.74 0.12999C35.65 0.13999 35.55 0.14999 35.46 0.16999C35.17 0.20999 34.88 0.24999 34.59 0.29999C34.51 0.30999 34.44 0.32999 34.36 0.33999C34.03 0.39999 33.7 0.46999 33.38 0.54999C33.35 0.54999 33.31 0.56999 33.28 0.56999C32.53 0.74999 31.8 0.97999 31.08 1.24999C31.03 1.26999 30.99 1.28999 30.94 1.30999C30.65 1.41999 30.37 1.53999 30.08 1.65999C29.98 1.70999 29.87 1.74999 29.77 1.79999C29.55 1.89999 29.32 2.00999 29.1 2.11999C29.03 2.15999 28.95 2.18999 28.87 2.22999C26.06 0.75999 22.92 -0.0100098 19.74 -0.0100098C8.86 -9.76585e-06 0 8.85999 0 19.75C0 22.93 0.77 26.07 2.24 28.88C2.22 28.91 2.21 28.94 2.19 28.97C2.06 29.23 1.93 29.49 1.81 29.75C1.76 29.86 1.71 29.98 1.66 30.09C1.55 30.34 1.45 30.59 1.35 30.85C1.3 30.98 1.25 31.12 1.2 31.25C1.11 31.49 1.03 31.73 0.95 31.98C0.9 32.13 0.85 32.29 0.81 32.45C0.74 32.68 0.68 32.91 0.62 33.14C0.57 33.32 0.54 33.5 0.49 33.68C0.44 33.9 0.39 34.11 0.35 34.33C0.31 34.54 0.28 34.75 0.25 34.96C0.22 35.15 0.19 35.35 0.16 35.54C0.13 35.79 0.11 36.05 0.08 36.3C0.07 36.46 0.05 36.61 0.04 36.77C0.01 37.18 0 37.6 0 38.01C0 48.9 8.86 57.76 19.75 57.76C20.13 57.76 20.5 57.75 20.87 57.73C20.96 57.73 21.06 57.72 21.15 57.71C21.44 57.69 21.72 57.66 22.01 57.63C22.1 57.62 22.2 57.61 22.29 57.59C22.58 57.55 22.87 57.51 23.16 57.46C23.24 57.45 23.31 57.43 23.39 57.42C23.72 57.36 24.04 57.29 24.37 57.21C24.41 57.21 24.44 57.19 24.48 57.18C25.23 57 25.96 56.77 26.67 56.5C26.72 56.48 26.77 56.46 26.82 56.44C27.11 56.33 27.39 56.21 27.67 56.09C27.77 56.04 27.88 56 27.98 55.95C28.2 55.85 28.43 55.74 28.65 55.63C28.72 55.59 28.8 55.56 28.88 55.52C31.69 56.99 34.83 57.76 38.01 57.76C48.9 57.76 57.76 48.9 57.76 38.01C57.76 34.83 56.99 31.69 55.52 28.88C55.54 28.85 55.55 28.81 55.57 28.78ZM38 54.75C35.9 54.75 33.82 54.35 31.87 53.58C36.51 49.96 39.5 44.33 39.5 38C39.5 37.17 38.83 36.5 38 36.5C37.17 36.5 36.5 37.17 36.5 38C36.5 44.25 33.05 49.71 27.96 52.59C27.75 52.71 27.53 52.83 27.31 52.94C27.24 52.98 27.17 53.01 27.1 53.05C26.8 53.2 26.49 53.34 26.18 53.47C26.15 53.48 26.12 53.49 26.09 53.5C25.8 53.62 25.51 53.73 25.21 53.83C25.16 53.85 25.1 53.87 25.05 53.88C24.74 53.98 24.43 54.08 24.12 54.16C24.11 54.16 24.09 54.16 24.08 54.17C23.41 54.35 22.73 54.48 22.04 54.58C21.97 54.59 21.89 54.6 21.82 54.61C21.56 54.64 21.29 54.67 21.03 54.69C20.94 54.69 20.86 54.7 20.77 54.71C20.43 54.73 20.1 54.74 19.76 54.74C10.52 54.74 3.01 47.23 3.01 37.99C3.01 35.05 3.79 32.15 5.26 29.62C5.51 29.19 5.53 28.66 5.31 28.21C5.3 28.18 5.28 28.15 5.27 28.12C3.8 25.58 3.02 22.69 3.02 19.75C3 10.52 10.52 2.99999 19.75 2.99999C21.85 2.99999 23.93 3.39999 25.88 4.16999C21.24 7.78999 18.25 13.42 18.25 19.75C18.25 20.58 18.92 21.25 19.75 21.25C20.58 21.25 21.25 20.58 21.25 19.75C21.25 13.5 24.7 8.02999 29.79 5.15999C30 5.03999 30.22 4.91999 30.44 4.80999C30.51 4.76999 30.58 4.73999 30.65 4.69999C30.95 4.54999 31.26 4.40999 31.57 4.27999C31.6 4.26999 31.62 4.25999 31.65 4.24999C31.94 4.12999 32.24 4.01999 32.54 3.91999C32.59 3.89999 32.64 3.87999 32.7 3.86999C33.01 3.76999 33.33 3.66999 33.64 3.57999C33.65 3.57999 33.66 3.57999 33.67 3.57999C34.34 3.39999 35.02 3.26999 35.71 3.16999C35.78 3.15999 35.86 3.14999 35.93 3.13999C36.19 3.10999 36.46 3.07999 36.73 3.05999C36.82 3.05999 36.9 3.04999 36.99 3.03999C37.33 3.01999 37.66 3.00999 38 3.00999C47.24 3.00999 54.75 10.52 54.75 19.76C54.75 22.7 53.97 25.59 52.5 28.13C52.23 28.6 52.23 29.17 52.5 29.63C53.97 32.17 54.75 35.06 54.75 38C54.75 47.24 47.24 54.75 38 54.75Z" fill="#1D1E1D"/>
<path id="Vector_3" d="M36.27 22.8C36.27 23.63 35.6 24.3 34.77 24.3C33.94 24.3 33.27 23.63 33.27 22.8C33.27 21.97 33.94 21.3 34.77 21.3C35.6 21.3 36.27 21.97 36.27 22.8Z" fill="#1D1E1D"/>
<path id="Vector_4" d="M43.76 22.8C43.76 23.63 43.09 24.3 42.26 24.3C41.43 24.3 40.76 23.63 40.76 22.8C40.76 21.97 41.43 21.3 42.26 21.3C43.09 21.3 43.76 21.97 43.76 22.8Z" fill="#1D1E1D"/>
</g>
<defs>
<clipPath id="clip0_27_11132">
<rect width="57.76" height="57.76" fill="white"/>
</clipPath>
</defs>
</svg>
