<svg width="76" height="58" viewBox="0 0 76 58" fill="none" xmlns="http://www.w3.org/2000/svg">
<g id="_&#235;&#160;&#136;&#236;&#157;&#180;&#236;&#150;&#180;_1" clip-path="url(#clip0_27_11138)">
<path id="Vector" d="M38.01 56.26C44.83 56.26 50.77 52.52 53.9 46.98C54.67 47.08 55.46 47.14 56.26 47.14C66.34 47.14 74.51 38.97 74.51 28.89C74.51 18.81 66.34 10.64 56.26 10.64C55.46 10.64 54.67 10.7 53.9 10.8C50.77 5.26002 44.83 1.52002 38.01 1.52002C31.19 1.52002 25.25 5.26002 22.12 10.8C21.35 10.7 20.56 10.64 19.76 10.64C9.67 10.63 1.5 18.8 1.5 28.88C1.5 38.96 9.67 47.13 19.75 47.13C20.55 47.13 21.34 47.07 22.11 46.97C25.24 52.51 31.18 56.25 38 56.25L38.01 56.26Z" fill="#0AAC51"/>
<path id="Vector_2" d="M24.33 52.24C24.43 52.33 24.53 52.43 24.63 52.52C24.83 52.71 25.04 52.89 25.25 53.07C25.36 53.16 25.47 53.26 25.59 53.35C25.8 53.52 26.01 53.68 26.23 53.84C26.35 53.93 26.48 54.02 26.6 54.11C26.81 54.26 27.03 54.41 27.25 54.55C27.39 54.64 27.52 54.72 27.66 54.81C27.88 54.94 28.09 55.07 28.31 55.2C28.46 55.28 28.61 55.36 28.76 55.44C28.98 55.55 29.19 55.67 29.41 55.77C29.57 55.85 29.74 55.92 29.9 56C30.11 56.1 30.33 56.19 30.55 56.28C30.73 56.35 30.91 56.42 31.09 56.49C31.3 56.57 31.51 56.65 31.73 56.72C31.92 56.78 32.12 56.84 32.31 56.9C32.52 56.96 32.72 57.03 32.93 57.08C33.14 57.14 33.35 57.18 33.57 57.23C33.77 57.28 33.97 57.33 34.17 57.37C34.4 57.42 34.64 57.45 34.88 57.49C35.06 57.52 35.25 57.55 35.43 57.58C35.7 57.62 35.98 57.64 36.26 57.66C36.41 57.67 36.56 57.69 36.71 57.7C37.14 57.73 37.57 57.74 38 57.74C38.39 57.74 38.78 57.73 39.17 57.7C39.27 57.7 39.37 57.68 39.46 57.68C39.77 57.66 40.07 57.63 40.38 57.59C40.47 57.58 40.55 57.57 40.64 57.56C41 57.51 41.36 57.45 41.72 57.39C41.74 57.39 41.75 57.39 41.77 57.39C44.22 56.92 46.5 55.99 48.54 54.7C48.59 54.67 48.64 54.64 48.69 54.6C48.96 54.42 49.23 54.24 49.49 54.05C49.56 54 49.62 53.96 49.69 53.91C49.99 53.69 50.29 53.46 50.58 53.22C50.64 53.17 50.7 53.12 50.75 53.07C50.97 52.89 51.18 52.7 51.39 52.51C51.52 52.39 51.64 52.28 51.76 52.16C51.9 52.03 52.03 51.89 52.16 51.76C52.29 51.62 52.42 51.49 52.55 51.35C52.67 51.22 52.79 51.09 52.9 50.95C53.12 50.7 53.33 50.45 53.53 50.19C53.65 50.04 53.76 49.9 53.87 49.75C53.98 49.6 54.09 49.44 54.2 49.28C54.31 49.13 54.41 48.97 54.51 48.82C54.57 48.73 54.63 48.65 54.69 48.56C54.72 48.56 54.75 48.56 54.78 48.56C54.92 48.57 55.05 48.58 55.19 48.59C55.55 48.61 55.9 48.62 56.25 48.62C67.14 48.62 76 39.76 76 28.87C76 17.98 67.14 9.12 56.25 9.12C55.88 9.12 55.51 9.14 55.13 9.16C55.01 9.16 54.9 9.17 54.78 9.18C54.75 9.18 54.72 9.18 54.69 9.18C51.08 3.5 44.78 0 38.01 0C31.24 0 24.93 3.5 21.32 9.19C20.79 9.15 20.27 9.12 19.76 9.12C8.86 9.13 0 17.99 0 28.88C0 39.77 8.86 48.63 19.75 48.63C20.26 48.63 20.78 48.61 21.31 48.57C21.32 48.59 21.34 48.61 21.35 48.63C21.52 48.9 21.7 49.16 21.88 49.42C21.94 49.51 22.01 49.6 22.07 49.69C22.25 49.94 22.44 50.18 22.63 50.41C22.71 50.5 22.78 50.6 22.86 50.69C23.05 50.92 23.25 51.14 23.45 51.35C23.54 51.44 23.62 51.54 23.71 51.63C23.91 51.84 24.11 52.04 24.32 52.24H24.33ZM3 28.88C3 19.64 10.51 12.13 19.75 12.13C20.44 12.13 21.17 12.18 21.92 12.27C22.53 12.35 23.12 12.05 23.42 11.52C26.39 6.27 31.98 3 38.01 3C43.32 3 48.29 5.54 51.43 9.73C46.26 11.04 41.75 14.4 39.06 19.16C38.93 19.39 38.86 19.65 38.86 19.9C38.86 20.42 39.13 20.93 39.62 21.21C40.34 21.62 41.26 21.36 41.67 20.64C44.28 16.03 48.91 12.95 54.08 12.27C54.08 12.27 54.09 12.27 54.1 12.27C54.84 12.17 55.57 12.13 56.27 12.13C65.51 12.13 73.02 19.64 73.02 28.88C73.02 38.12 65.51 45.63 56.27 45.63C56.27 45.63 56.25 45.63 56.24 45.63C57.23 43.28 57.77 40.71 57.77 38.01C57.77 34.54 56.86 31.12 55.13 28.13C54.71 27.41 53.8 27.17 53.08 27.58C52.36 27.99 52.12 28.91 52.53 29.63C54 32.16 54.77 35.06 54.77 38C54.77 40.94 53.94 43.95 52.49 46.42C52.38 46.61 52.27 46.79 52.16 46.97C52.09 47.08 52.02 47.19 51.95 47.3C51.78 47.55 51.61 47.79 51.43 48.03C51.35 48.14 51.26 48.24 51.18 48.35C51.06 48.5 50.94 48.65 50.82 48.8C50.73 48.91 50.63 49.02 50.53 49.13C50.39 49.28 50.25 49.43 50.11 49.58C50.03 49.66 49.95 49.75 49.87 49.83C49.65 50.05 49.43 50.26 49.2 50.47C49.13 50.54 49.05 50.6 48.98 50.66C48.79 50.82 48.6 50.99 48.4 51.14C48.34 51.19 48.27 51.24 48.21 51.29C47.66 51.71 47.08 52.1 46.48 52.45C46.48 52.45 46.46 52.46 46.45 52.47C44.58 53.56 42.51 54.28 40.33 54.59C40.27 54.59 40.21 54.61 40.15 54.61C39.87 54.65 39.59 54.67 39.31 54.69C39.23 54.69 39.14 54.7 39.06 54.71C38.72 54.73 38.37 54.74 38.03 54.74C32.01 54.74 26.42 51.48 23.44 46.22C23.24 45.87 22.91 45.62 22.53 45.51C22.44 45.49 22.35 45.47 22.26 45.46C22.26 45.46 22.24 45.46 22.23 45.46C22.13 45.46 22.03 45.46 21.93 45.46C21.19 45.56 20.46 45.6 19.76 45.6C10.52 45.6 3.01 38.09 3.01 28.85L3 28.88Z" fill="#1D1E1D"/>
<path id="Vector_3" d="M17.64 22.8C17.64 23.63 16.97 24.3 16.14 24.3C15.31 24.3 14.64 23.63 14.64 22.8C14.64 21.97 15.31 21.3 16.14 21.3C16.97 21.3 17.64 21.97 17.64 22.8Z" fill="#1D1E1D"/>
<path id="Vector_4" d="M25.13 22.8C25.13 23.63 24.46 24.3 23.63 24.3C22.8 24.3 22.13 23.63 22.13 22.8C22.13 21.97 22.8 21.3 23.63 21.3C24.46 21.3 25.13 21.97 25.13 22.8Z" fill="#1D1E1D"/>
</g>
<defs>
<clipPath id="clip0_27_11138">
<rect width="76.01" height="57.76" fill="white"/>
</clipPath>
</defs>
</svg>
