<svg width="58" height="58" viewBox="0 0 58 58" fill="none" xmlns="http://www.w3.org/2000/svg">
<g id="_&#235;&#160;&#136;&#236;&#157;&#180;&#236;&#150;&#180;_1" clip-path="url(#clip0_27_11148)">
<path id="Vector" d="M1.5 38.01C1.5 48.09 9.67 56.26 19.75 56.26C23.08 56.26 26.19 55.37 28.88 53.81C31.57 55.36 34.68 56.26 38.01 56.26C48.09 56.26 56.26 48.09 56.26 38.01C56.26 34.68 55.37 31.57 53.81 28.88C55.36 26.19 56.26 23.08 56.26 19.75C56.26 9.67 48.09 1.5 38.01 1.5C34.68 1.5 31.57 2.39 28.88 3.95C26.19 2.4 23.08 1.5 19.75 1.5C9.67 1.5 1.5 9.67 1.5 19.75C1.5 23.08 2.39 26.19 3.95 28.88C2.4 31.57 1.5 34.68 1.5 38.01Z" fill="#0074BD"/>
<path id="Vector_2" d="M2.19 28.98C2.06 29.23 1.94 29.49 1.82 29.74C1.77 29.86 1.71 29.98 1.66 30.1C1.55 30.35 1.45 30.6 1.35 30.85C1.3 30.99 1.25 31.12 1.2 31.26C1.11 31.5 1.03 31.74 0.95 31.98C0.9 32.14 0.85 32.29 0.81 32.45C0.74 32.68 0.68 32.91 0.62 33.14C0.57 33.32 0.54 33.5 0.49 33.68C0.44 33.9 0.39 34.11 0.35 34.33C0.31 34.54 0.28 34.75 0.25 34.96C0.22 35.15 0.19 35.35 0.16 35.54C0.13 35.79 0.11 36.05 0.09 36.3C0.08 36.46 0.06 36.61 0.05 36.77C0.02 37.18 0.01 37.6 0.01 38.01C0.01 48.9 8.87 57.76 19.76 57.76C20.14 57.76 20.51 57.75 20.88 57.73C20.97 57.73 21.07 57.72 21.16 57.71C21.45 57.69 21.73 57.66 22.02 57.63C22.11 57.62 22.21 57.61 22.3 57.59C22.59 57.55 22.88 57.51 23.17 57.46C23.25 57.45 23.32 57.43 23.4 57.42C23.73 57.36 24.06 57.29 24.38 57.21C24.41 57.21 24.45 57.19 24.48 57.19C25.23 57.01 25.96 56.78 26.68 56.51C26.73 56.49 26.77 56.47 26.82 56.45C27.11 56.34 27.39 56.22 27.68 56.1C27.78 56.05 27.89 56.01 27.99 55.96C28.21 55.86 28.44 55.75 28.66 55.64C28.73 55.6 28.81 55.57 28.89 55.53C31.7 57 34.84 57.77 38.02 57.77C48.91 57.77 57.77 48.91 57.77 38.02C57.77 34.84 57 31.7 55.53 28.89C55.55 28.86 55.56 28.83 55.58 28.8C55.71 28.54 55.84 28.28 55.96 28.02C56.01 27.91 56.06 27.79 56.11 27.68C56.22 27.43 56.32 27.18 56.42 26.92C56.47 26.79 56.52 26.65 56.57 26.52C56.66 26.28 56.74 26.04 56.82 25.79C56.87 25.64 56.92 25.48 56.96 25.32C57.03 25.09 57.09 24.86 57.15 24.63C57.2 24.45 57.23 24.27 57.28 24.09C57.33 23.87 57.38 23.66 57.42 23.44C57.46 23.23 57.49 23.02 57.52 22.81C57.55 22.62 57.58 22.42 57.61 22.23C57.64 21.98 57.66 21.72 57.69 21.47C57.7 21.31 57.72 21.16 57.73 21C57.76 20.59 57.77 20.17 57.77 19.76C57.76 8.86 48.9 0 38 0C37.62 0 37.25 0.01 36.88 0.03C36.79 0.03 36.69 0.04 36.6 0.05C36.31 0.07 36.03 0.1 35.74 0.13C35.65 0.14 35.55 0.15 35.46 0.17C35.17 0.21 34.88 0.25 34.59 0.3C34.51 0.31 34.44 0.33 34.36 0.34C34.03 0.4 33.71 0.47 33.38 0.55C33.34 0.55 33.31 0.57 33.27 0.58C32.52 0.76 31.79 0.99 31.08 1.26C31.03 1.28 30.98 1.3 30.93 1.32C30.64 1.43 30.36 1.55 30.08 1.67C29.98 1.72 29.87 1.76 29.77 1.81C29.55 1.91 29.32 2.02 29.1 2.13C29.03 2.17 28.95 2.2 28.87 2.24C26.06 0.77 22.92 0 19.74 0C8.86 0 0 8.86 0 19.75C0 22.93 0.77 26.07 2.24 28.88C2.22 28.91 2.21 28.95 2.19 28.98ZM19.75 3C21.85 3 23.93 3.4 25.88 4.17C21.24 7.79 18.25 13.42 18.25 19.75C18.25 20.58 18.92 21.25 19.75 21.25C20.58 21.25 21.25 20.58 21.25 19.75C21.25 13.5 24.7 8.04 29.79 5.16C30 5.04 30.22 4.92 30.44 4.81C30.51 4.77 30.58 4.74 30.65 4.7C30.95 4.55 31.26 4.41 31.57 4.28C31.6 4.27 31.63 4.26 31.66 4.25C31.95 4.13 32.24 4.02 32.54 3.92C32.59 3.9 32.65 3.88 32.7 3.87C33.01 3.77 33.32 3.67 33.63 3.59C33.64 3.59 33.66 3.59 33.67 3.58C34.34 3.4 35.02 3.27 35.71 3.17C35.78 3.16 35.86 3.15 35.93 3.14C36.19 3.11 36.46 3.08 36.72 3.06C36.81 3.06 36.89 3.05 36.98 3.04C37.32 3.02 37.65 3.01 37.99 3.01C47.23 3.01 54.74 10.52 54.74 19.76C54.74 22.7 53.96 25.6 52.49 28.13C52.24 28.56 52.22 29.09 52.44 29.54C52.45 29.57 52.47 29.6 52.48 29.63C53.95 32.17 54.73 35.06 54.73 38C54.73 47.24 47.22 54.75 37.98 54.75C35.88 54.75 33.8 54.35 31.85 53.58C36.49 49.96 39.48 44.33 39.48 38C39.48 37.17 38.81 36.5 37.98 36.5C37.15 36.5 36.48 37.17 36.48 38C36.48 44.25 33.03 49.72 27.94 52.59C27.73 52.71 27.51 52.83 27.29 52.94C27.22 52.98 27.15 53.01 27.08 53.05C26.78 53.2 26.47 53.34 26.16 53.47C26.13 53.48 26.11 53.49 26.08 53.5C25.79 53.62 25.49 53.73 25.19 53.83C25.14 53.85 25.09 53.87 25.03 53.88C24.72 53.98 24.4 54.08 24.09 54.17C24.08 54.17 24.07 54.17 24.06 54.17C23.39 54.35 22.71 54.48 22.02 54.58C21.95 54.59 21.87 54.6 21.8 54.61C21.54 54.64 21.27 54.67 21 54.69C20.91 54.69 20.83 54.7 20.74 54.71C20.4 54.73 20.07 54.74 19.73 54.74C10.49 54.74 2.98 47.23 2.98 37.99C2.98 35.05 3.76 32.16 5.23 29.62C5.5 29.15 5.5 28.58 5.23 28.12C3.76 25.58 2.98 22.69 2.98 19.75C3 10.52 10.52 3 19.75 3Z" fill="#1D1E1D"/>
</g>
<defs>
<clipPath id="clip0_27_11148">
<rect width="57.76" height="57.76" fill="white"/>
</clipPath>
</defs>
</svg>
