<svg width="40" height="58" viewBox="0 0 40 58" fill="none" xmlns="http://www.w3.org/2000/svg">
<g id="_&#235;&#160;&#136;&#236;&#157;&#180;&#236;&#150;&#180;_1" clip-path="url(#clip0_27_11120)">
<path id="Vector" d="M38 38.01C38 34.68 37.11 31.57 35.55 28.88C37.1 26.19 38 23.08 38 19.75C38 9.67 29.83 1.5 19.75 1.5C9.67 1.5 1.5 9.67 1.5 19.75C1.5 23.08 2.39 26.19 3.95 28.88C2.4 31.57 1.5 34.68 1.5 38.01C1.5 48.09 9.67 56.26 19.75 56.26C29.83 56.26 38 48.09 38 38.01Z" fill="#0074BD"/>
<path id="Vector_2" d="M39.51 38.01C39.51 37.63 39.5 37.26 39.48 36.89C39.48 36.8 39.47 36.7 39.46 36.61C39.44 36.32 39.41 36.04 39.38 35.75C39.37 35.66 39.36 35.56 39.34 35.47C39.3 35.18 39.26 34.89 39.21 34.6C39.2 34.52 39.18 34.45 39.17 34.37C39.11 34.04 39.04 33.72 38.96 33.39C38.96 33.35 38.94 33.32 38.93 33.28C38.75 32.53 38.52 31.8 38.25 31.09C38.23 31.04 38.21 30.98 38.19 30.93C38.08 30.65 37.97 30.37 37.85 30.1C37.8 29.99 37.75 29.88 37.7 29.77C37.6 29.55 37.5 29.34 37.39 29.13C37.35 29.05 37.32 28.97 37.27 28.89C38.73 26.08 39.51 22.94 39.51 19.76C39.51 8.86 30.65 0 19.75 0C8.85 0 0 8.86 0 19.75C0 22.93 0.77 26.07 2.24 28.88C2.22 28.91 2.21 28.95 2.19 28.98C2.06 29.23 1.94 29.49 1.82 29.75C1.77 29.86 1.72 29.98 1.66 30.09C1.55 30.34 1.45 30.59 1.35 30.85C1.3 30.98 1.25 31.11 1.2 31.25C1.11 31.49 1.03 31.74 0.95 31.98C0.9 32.13 0.86 32.29 0.81 32.44C0.74 32.67 0.68 32.9 0.62 33.14C0.58 33.32 0.54 33.49 0.5 33.67C0.45 33.89 0.4 34.11 0.36 34.33C0.32 34.54 0.29 34.74 0.26 34.95C0.23 35.15 0.2 35.34 0.17 35.54C0.14 35.79 0.12 36.04 0.1 36.3C0.09 36.46 0.07 36.61 0.06 36.77C0.03 37.18 0.02 37.6 0.02 38.01C0.02 48.9 8.88 57.76 19.77 57.76C30.66 57.76 39.52 48.9 39.52 38.01H39.51ZM3 38.01C3 35.07 3.78 32.18 5.25 29.64C5.38 29.41 5.45 29.15 5.45 28.89C5.45 28.67 5.4 28.44 5.3 28.23C5.29 28.2 5.27 28.17 5.26 28.14C3.79 25.6 3.01 22.71 3.01 19.77C3 10.52 10.52 3 19.75 3C28.98 3 36.5 10.51 36.5 19.75C36.5 21.85 36.1 23.93 35.33 25.88C31.71 21.24 26.08 18.25 19.75 18.25C18.92 18.25 18.25 18.92 18.25 19.75C18.25 20.58 18.92 21.25 19.75 21.25C26.01 21.25 31.47 24.7 34.35 29.8C34.47 30.01 34.58 30.21 34.68 30.42C34.72 30.5 34.76 30.58 34.8 30.66C34.95 30.96 35.08 31.26 35.21 31.57C35.22 31.61 35.24 31.64 35.25 31.68C35.37 31.96 35.47 32.25 35.57 32.54C35.59 32.6 35.61 32.66 35.63 32.72C35.73 33.02 35.82 33.33 35.91 33.64C35.91 33.66 35.92 33.68 35.93 33.69C36.11 34.36 36.24 35.04 36.34 35.72C36.35 35.8 36.36 35.87 36.37 35.95C36.4 36.21 36.43 36.48 36.45 36.74C36.45 36.83 36.46 36.91 36.47 37C36.49 37.34 36.5 37.67 36.5 38.01C36.5 47.25 28.99 54.76 19.75 54.76C10.51 54.76 3 47.24 3 38.01Z" fill="#1D1E1D"/>
<path id="Vector_3" d="M12.26 36.98C12.26 37.81 11.59 38.48 10.76 38.48C9.93001 38.48 9.26001 37.81 9.26001 36.98C9.26001 36.15 9.93001 35.48 10.76 35.48C11.59 35.48 12.26 36.15 12.26 36.98Z" fill="#1D1E1D"/>
<path id="Vector_4" d="M19.75 36.98C19.75 37.81 19.08 38.48 18.25 38.48C17.42 38.48 16.75 37.81 16.75 36.98C16.75 36.15 17.42 35.48 18.25 35.48C19.08 35.48 19.75 36.15 19.75 36.98Z" fill="#1D1E1D"/>
</g>
<defs>
<clipPath id="clip0_27_11120">
<rect width="39.51" height="57.76" fill="white"/>
</clipPath>
</defs>
</svg>
