<svg width="40" height="58" viewBox="0 0 40 58" fill="none" xmlns="http://www.w3.org/2000/svg">
<g id="_&#235;&#160;&#136;&#236;&#157;&#180;&#236;&#150;&#180;_1" clip-path="url(#clip0_27_11156)">
<path id="Vector" d="M1.5 19.75C1.5 23.08 2.39 26.19 3.95 28.88C2.4 31.57 1.5 34.68 1.5 38.01C1.5 48.09 9.67 56.26 19.75 56.26C29.83 56.26 38 48.09 38 38.01C38 34.68 37.11 31.57 35.55 28.88C37.1 26.19 38 23.08 38 19.75C38.01 9.67 29.83 1.5 19.75 1.5C9.67 1.5 1.5 9.67 1.5 19.75Z" fill="#0AAC51"/>
<path id="Vector_2" d="M0 19.75C0 20.13 0.01 20.5 0.03 20.87C0.03 20.96 0.04 21.06 0.05 21.15C0.07 21.44 0.1 21.72 0.13 22.01C0.14 22.1 0.15 22.2 0.17 22.29C0.21 22.58 0.25 22.87 0.3 23.16C0.31 23.24 0.33 23.31 0.34 23.39C0.4 23.72 0.47 24.04 0.55 24.37C0.55 24.41 0.57 24.44 0.58 24.48C0.76 25.23 0.99 25.96 1.26 26.67C1.28 26.72 1.3 26.78 1.32 26.83C1.43 27.11 1.54 27.39 1.66 27.66C1.71 27.77 1.76 27.88 1.81 27.99C1.91 28.21 2.01 28.42 2.12 28.63C2.16 28.71 2.19 28.79 2.24 28.87C0.77 31.68 0 34.82 0 38C0 48.89 8.86 57.75 19.75 57.75C30.64 57.75 39.5 48.89 39.5 38C39.5 34.82 38.73 31.68 37.26 28.87C37.28 28.84 37.29 28.8 37.31 28.77C37.44 28.52 37.56 28.26 37.68 28C37.73 27.89 37.78 27.77 37.84 27.66C37.95 27.41 38.05 27.16 38.15 26.9C38.2 26.77 38.25 26.64 38.3 26.5C38.39 26.26 38.47 26.01 38.55 25.77C38.6 25.62 38.64 25.46 38.69 25.31C38.76 25.08 38.82 24.84 38.88 24.61C38.92 24.43 38.96 24.26 39 24.08C39.05 23.86 39.1 23.64 39.14 23.42C39.18 23.21 39.21 23.01 39.24 22.8C39.27 22.6 39.3 22.41 39.33 22.21C39.36 21.96 39.38 21.71 39.4 21.45C39.41 21.29 39.43 21.14 39.44 20.98C39.47 20.57 39.48 20.15 39.48 19.74C39.51 8.86 30.65 0 19.75 0C8.85 0 0 8.86 0 19.75ZM36.5 19.75C36.5 22.69 35.72 25.58 34.25 28.12C34.12 28.35 34.05 28.61 34.05 28.87C34.05 29.09 34.1 29.32 34.2 29.53C34.21 29.56 34.23 29.59 34.24 29.62C35.71 32.16 36.49 35.05 36.49 37.99C36.49 47.23 28.98 54.74 19.74 54.74C10.5 54.74 3 47.24 3 38C3 35.9 3.4 33.82 4.17 31.87C7.79 36.51 13.42 39.5 19.75 39.5C20.58 39.5 21.25 38.83 21.25 38C21.25 37.17 20.58 36.5 19.75 36.5C13.49 36.5 8.03 33.05 5.15 27.95C5.03 27.74 4.92 27.54 4.82 27.33C4.78 27.25 4.74 27.17 4.7 27.09C4.55 26.79 4.42 26.49 4.29 26.18C4.28 26.14 4.26 26.11 4.25 26.07C4.13 25.79 4.03 25.5 3.93 25.21C3.91 25.15 3.89 25.09 3.87 25.03C3.77 24.73 3.67 24.42 3.59 24.11C3.59 24.09 3.58 24.08 3.58 24.06C3.4 23.39 3.27 22.71 3.17 22.03C3.16 21.95 3.15 21.88 3.14 21.8C3.11 21.54 3.08 21.27 3.06 21.01C3.06 20.92 3.05 20.84 3.04 20.75C3.02 20.41 3.01 20.08 3.01 19.74C3 10.52 10.52 3 19.75 3C28.98 3 36.5 10.51 36.5 19.75Z" fill="#1D1E1D"/>
</g>
<defs>
<clipPath id="clip0_27_11156">
<rect width="39.51" height="57.76" fill="white"/>
</clipPath>
</defs>
</svg>
