<svg width="74" height="102" viewBox="0 0 74 102" fill="none" xmlns="http://www.w3.org/2000/svg">
<g clip-path="url(#clip0_64_59)">
<path d="M1.75 78.72C1.75 90.46 11.27 99.98 23.01 99.98C26.88 99.98 30.51 98.94 33.64 97.13C36.77 98.94 40.4 99.98 44.27 99.98C56.01 99.98 65.53 90.46 65.53 78.72C65.53 74.85 64.49 71.22 62.68 68.09C64.49 64.96 65.53 61.33 65.53 57.46C65.53 45.72 56.01 36.2 44.27 36.2C40.4 36.2 36.77 37.24 33.64 39.05C30.51 37.24 26.88 36.2 23.01 36.2C11.27 36.2 1.75 45.72 1.75 57.46C1.75 61.33 2.79 64.96 4.6 68.09C2.79 71.22 1.75 74.85 1.75 78.72Z" fill="#4285F4"/>
<path d="M2.54999 68.21C2.39999 68.5 2.25999 68.8 2.11999 69.1C2.05999 69.24 1.98999 69.38 1.92999 69.52C1.79999 69.81 1.68999 70.1 1.56999 70.39C1.50999 70.55 1.44999 70.71 1.38999 70.87C1.28999 71.15 1.18999 71.43 1.09999 71.71C1.03999 71.89 0.98999 72.08 0.92999 72.26C0.84999 72.53 0.77999 72.79 0.70999 73.06C0.65999 73.27 0.60999 73.48 0.55999 73.69C0.49999 73.94 0.44999 74.19 0.39999 74.44C0.34999 74.68 0.31999 74.93 0.27999 75.17C0.23999 75.4 0.20999 75.62 0.17999 75.85C0.13999 76.14 0.11999 76.44 0.0899902 76.74C0.0699902 76.92 0.0499902 77.1 0.0399902 77.29C0.00999023 77.77 -0.0100098 78.25 -0.0100098 78.74C-0.0100098 91.43 10.31 101.75 23 101.75C23.44 101.75 23.87 101.73 24.31 101.71C24.42 101.71 24.53 101.69 24.64 101.69C24.97 101.67 25.31 101.64 25.64 101.6C25.75 101.59 25.86 101.57 25.97 101.56C26.31 101.52 26.65 101.46 26.99 101.41C27.08 101.39 27.17 101.38 27.26 101.36C27.65 101.29 28.03 101.21 28.4 101.12C28.44 101.12 28.48 101.1 28.52 101.09C29.39 100.87 30.25 100.61 31.08 100.3C31.14 100.28 31.19 100.26 31.25 100.23C31.59 100.1 31.92 99.96 32.25 99.82C32.37 99.77 32.49 99.71 32.61 99.66C32.87 99.54 33.13 99.41 33.39 99.28C33.48 99.24 33.57 99.2 33.65 99.15C36.92 100.86 40.58 101.75 44.28 101.75C56.97 101.75 67.29 91.43 67.29 78.74C67.29 75.04 66.39 71.38 64.69 68.11C64.71 68.07 64.72 68.04 64.74 68C64.89 67.7 65.04 67.4 65.18 67.09C65.24 66.96 65.3 66.83 65.36 66.69C65.49 66.4 65.61 66.11 65.72 65.81C65.78 65.65 65.84 65.5 65.9 65.34C66 65.06 66.1 64.78 66.19 64.49C66.25 64.31 66.3 64.13 66.35 63.95C66.43 63.68 66.51 63.41 66.57 63.14C66.62 62.93 66.67 62.72 66.72 62.51C66.78 62.26 66.83 62.01 66.88 61.75C66.93 61.51 66.96 61.26 67 61.02C67.04 60.79 67.07 60.57 67.1 60.34C67.14 60.05 67.16 59.75 67.19 59.45C67.21 59.27 67.23 59.09 67.24 58.91C67.27 58.43 67.29 57.95 67.29 57.46C67.29 44.77 56.97 34.45 44.28 34.45C43.84 34.45 43.41 34.47 42.97 34.49C42.86 34.49 42.75 34.51 42.64 34.51C42.31 34.53 41.97 34.56 41.64 34.6C41.53 34.61 41.42 34.63 41.31 34.64C40.97 34.68 40.63 34.74 40.29 34.79C40.2 34.81 40.11 34.82 40.02 34.84C39.64 34.91 39.26 34.99 38.88 35.08C38.84 35.09 38.8 35.1 38.75 35.11C37.88 35.33 37.02 35.59 36.19 35.9C36.13 35.92 36.08 35.95 36.02 35.97C35.69 36.1 35.36 36.23 35.03 36.38C34.91 36.43 34.79 36.49 34.67 36.54C34.41 36.66 34.15 36.79 33.9 36.91C33.81 36.95 33.72 36.99 33.64 37.04C30.37 35.33 26.71 34.44 23.01 34.44C10.32 34.45 -9.76585e-06 44.77 -9.76585e-06 57.46C-9.76585e-06 61.16 0.89999 64.82 2.59999 68.09C2.57999 68.13 2.55999 68.17 2.53999 68.21H2.54999ZM23.01 37.95C25.46 37.95 27.88 38.42 30.15 39.31C24.75 43.52 21.26 50.09 21.26 57.46C21.26 58.43 22.04 59.21 23.01 59.21C23.98 59.21 24.76 58.43 24.76 57.46C24.76 50.18 28.78 43.82 34.71 40.46C34.96 40.32 35.21 40.18 35.47 40.05C35.55 40.01 35.64 39.96 35.72 39.92C36.07 39.75 36.43 39.59 36.79 39.44C36.82 39.43 36.86 39.41 36.89 39.4C37.23 39.26 37.57 39.13 37.91 39.01C37.97 38.99 38.04 38.97 38.1 38.95C38.46 38.83 38.82 38.72 39.19 38.62C39.21 38.62 39.22 38.62 39.24 38.61C40.02 38.4 40.81 38.24 41.61 38.13C41.7 38.12 41.78 38.11 41.87 38.1C42.18 38.06 42.49 38.03 42.8 38.01C42.9 38.01 43 37.99 43.1 37.99C43.49 37.97 43.88 37.95 44.28 37.95C55.04 37.95 63.79 46.7 63.79 57.46C63.79 60.88 62.89 64.26 61.17 67.21C60.88 67.72 60.86 68.33 61.11 68.85C61.11 68.85 61.11 68.85 61.11 68.86C61.13 68.89 61.14 68.93 61.16 68.96C62.87 71.92 63.78 75.29 63.78 78.71C63.78 89.47 55.03 98.22 44.27 98.22C41.82 98.22 39.4 97.75 37.13 96.86C42.53 92.65 46.02 86.08 46.02 78.71C46.02 77.74 45.24 76.96 44.27 76.96C43.3 76.96 42.52 77.74 42.52 78.71C42.52 86 38.5 92.36 32.57 95.71C32.32 95.85 32.07 95.98 31.82 96.11C31.74 96.15 31.65 96.2 31.57 96.24C31.22 96.41 30.86 96.58 30.5 96.73C30.47 96.74 30.44 96.75 30.41 96.77C30.07 96.91 29.73 97.04 29.38 97.16C29.32 97.18 29.26 97.2 29.2 97.22C28.84 97.34 28.47 97.45 28.1 97.55C28.09 97.55 28.07 97.55 28.06 97.56C27.28 97.77 26.48 97.93 25.68 98.04C25.59 98.05 25.51 98.06 25.42 98.07C25.11 98.11 24.8 98.14 24.49 98.16C24.39 98.16 24.29 98.18 24.19 98.18C23.8 98.2 23.41 98.22 23.01 98.22C12.25 98.22 3.49999 89.47 3.49999 78.71C3.49999 75.29 4.39999 71.91 6.11999 68.96C6.42999 68.42 6.42999 67.75 6.11999 67.21C4.40999 64.25 3.49999 60.88 3.49999 57.46C3.49999 46.7 12.25 37.95 23.01 37.95Z" fill="#1E1E1E"/>
<path d="M26.78 76.92C27.7465 76.92 28.53 76.1365 28.53 75.17C28.53 74.2035 27.7465 73.42 26.78 73.42C25.8135 73.42 25.03 74.2035 25.03 75.17C25.03 76.1365 25.8135 76.92 26.78 76.92Z" fill="#1E1E1E"/>
<path d="M18.06 76.92C19.0265 76.92 19.81 76.1365 19.81 75.17C19.81 74.2035 19.0265 73.42 18.06 73.42C17.0935 73.42 16.31 74.2035 16.31 75.17C16.31 76.1365 17.0935 76.92 18.06 76.92Z" fill="#1E1E1E"/>
<path d="M66.4 12.37C69.3326 12.37 71.71 9.99263 71.71 7.06C71.71 4.12737 69.3326 1.75 66.4 1.75C63.4674 1.75 61.09 4.12737 61.09 7.06C61.09 9.99263 63.4674 12.37 66.4 12.37Z" fill="#F0F0F0"/>
<path d="M55.38 28.32H12.86V39.66H55.38V28.32Z" fill="#F0F0F0"/>
<path d="M34.12 7.06C22.38 7.06 12.86 16.58 12.86 28.32H55.38C55.38 20.57 57.46 13.32 61.08 7.06H34.12Z" fill="#EA4335"/>
<path d="M66.4 0C63.11 0 60.35 2.26 59.56 5.31H34.12C21.43 5.31 11.11 15.63 11.11 28.32V39.66C11.11 40.63 11.89 41.41 12.86 41.41H55.38C56.35 41.41 57.13 40.63 57.13 39.66V28.32C57.13 22.46 58.4 16.68 60.82 11.38C62.11 13.05 64.13 14.12 66.4 14.12C70.3 14.12 73.46 10.95 73.46 7.06C73.46 3.17 70.29 0 66.4 0ZM53.63 37.91H14.61V30.07H53.63V37.91ZM53.67 26.57H14.69C15.58 16.63 23.95 8.81 34.12 8.81H58.16C55.44 14.34 53.91 20.4 53.66 26.57H53.67ZM66.4 10.63C64.43 10.63 62.84 9.03 62.84 7.07C62.84 5.1 64.44 3.51 66.4 3.51C68.36 3.51 69.96 5.11 69.96 7.07C69.96 9.03 68.36 10.63 66.4 10.63Z" fill="#1E1E1E"/>
<path d="M21.78 90.53C24.7126 90.53 27.09 88.1527 27.09 85.22C27.09 82.2874 24.7126 79.91 21.78 79.91C18.8473 79.91 16.47 82.2874 16.47 85.22C16.47 88.1527 18.8473 90.53 21.78 90.53Z" fill="#EA4335"/>
<path d="M21.78 92.28C17.88 92.28 14.72 89.11 14.72 85.22C14.72 81.33 17.89 78.16 21.78 78.16C25.67 78.16 28.84 81.33 28.84 85.22C28.84 89.11 25.67 92.28 21.78 92.28ZM21.78 81.65C19.81 81.65 18.22 83.25 18.22 85.21C18.22 87.17 19.82 88.77 21.78 88.77C23.74 88.77 25.34 87.17 25.34 85.21C25.34 83.25 23.74 81.65 21.78 81.65Z" fill="#1E1E1E"/>
</g>
<defs>
<clipPath id="clip0_64_59">
<rect width="73.46" height="101.73" fill="white"/>
</clipPath>
</defs>
</svg>
