<svg width="47" height="68" viewBox="0 0 47 68" fill="none" xmlns="http://www.w3.org/2000/svg">
<g clip-path="url(#clip0_64_93)">
<path d="M1.75 23.01C1.75 26.88 2.79 30.51 4.6 33.64C2.79 36.77 1.75 40.4 1.75 44.27C1.75 56.01 11.27 65.53 23.01 65.53C34.75 65.53 44.27 56.01 44.27 44.27C44.27 40.4 43.23 36.77 41.42 33.64C43.23 30.51 44.27 26.88 44.27 23.01C44.27 11.27 34.75 1.75 23.01 1.75C11.27 1.75 1.75 11.27 1.75 23.01Z" fill="#34A853"/>
<path d="M1.09859e-05 23.01C1.09859e-05 23.45 0.020011 23.88 0.040011 24.32C0.040011 24.43 0.060011 24.54 0.060011 24.65C0.080011 24.98 0.110011 25.32 0.150011 25.65C0.160011 25.76 0.180011 25.87 0.190011 25.98C0.230011 26.32 0.290011 26.66 0.340011 27C0.360011 27.09 0.370011 27.18 0.390011 27.27C0.460011 27.65 0.540011 28.03 0.630011 28.41C0.640011 28.45 0.650011 28.5 0.660011 28.54C0.880011 29.41 1.14001 30.26 1.45001 31.09C1.47001 31.15 1.50001 31.21 1.52001 31.28C1.65001 31.61 1.78001 31.93 1.92001 32.25C1.98001 32.38 2.03001 32.5 2.09001 32.63C2.21001 32.88 2.33001 33.13 2.45001 33.38C2.50001 33.47 2.54001 33.57 2.58001 33.66C0.870011 36.93 -0.019989 40.59 -0.019989 44.29C-0.019989 56.98 10.3 67.3 22.99 67.3C35.68 67.3 46 56.98 46 44.29C46 40.59 45.1 36.93 43.4 33.66C43.42 33.62 43.44 33.58 43.45 33.55C43.6 33.25 43.75 32.95 43.89 32.65C43.95 32.52 44.01 32.38 44.07 32.25C44.2 31.96 44.32 31.66 44.43 31.37C44.49 31.22 44.55 31.06 44.6 30.91C44.7 30.63 44.8 30.34 44.89 30.06C44.95 29.88 45 29.7 45.05 29.52C45.13 29.25 45.21 28.98 45.28 28.7C45.33 28.5 45.38 28.29 45.42 28.08C45.48 27.83 45.53 27.57 45.58 27.32C45.63 27.08 45.66 26.84 45.7 26.6C45.74 26.37 45.78 26.14 45.8 25.91C45.84 25.62 45.86 25.32 45.89 25.03C45.91 24.85 45.93 24.67 45.94 24.48C45.97 24 45.99 23.52 45.99 23.03C46.02 10.32 35.7 0 23.01 0C10.32 0 1.09859e-05 10.32 1.09859e-05 23.01ZM42.52 23.01C42.52 26.43 41.62 29.81 39.9 32.76C39.74 33.03 39.66 33.33 39.66 33.64C39.66 33.9 39.72 34.16 39.84 34.4C39.86 34.43 39.87 34.47 39.89 34.5C41.6 37.46 42.51 40.83 42.51 44.25C42.51 55.01 33.76 63.76 23 63.76C12.24 63.76 3.50001 55.03 3.50001 44.27C3.50001 41.82 3.97001 39.4 4.86001 37.13C9.07001 42.53 15.64 46.02 23.01 46.02C23.98 46.02 24.76 45.24 24.76 44.27C24.76 43.3 23.98 42.52 23.01 42.52C15.72 42.52 9.36001 38.5 6.01001 32.56C5.88001 32.32 5.75001 32.08 5.62001 31.84C5.57001 31.75 5.52001 31.66 5.48001 31.56C5.31001 31.21 5.15001 30.86 5.00001 30.5C4.98001 30.46 4.97001 30.42 4.95001 30.37C4.82001 30.04 4.69001 29.71 4.57001 29.37C4.55001 29.3 4.52001 29.23 4.50001 29.17C4.38001 28.82 4.27001 28.46 4.18001 28.1C4.18001 28.08 4.17001 28.06 4.16001 28.04C3.95001 27.26 3.80001 26.47 3.68001 25.67C3.67001 25.58 3.66001 25.49 3.65001 25.41C3.61001 25.1 3.58001 24.79 3.56001 24.49C3.56001 24.39 3.54001 24.29 3.54001 24.19C3.52001 23.8 3.50001 23.41 3.50001 23.01C3.50001 12.25 12.25 3.5 23.01 3.5C33.77 3.5 42.52 12.25 42.52 23.01Z" fill="#1E1E1E"/>
<path d="M33.49 25.96C34.4565 25.96 35.24 25.1765 35.24 24.21C35.24 23.2435 34.4565 22.46 33.49 22.46C32.5235 22.46 31.74 23.2435 31.74 24.21C31.74 25.1765 32.5235 25.96 33.49 25.96Z" fill="#1E1E1E"/>
<path d="M24.76 25.96C25.7265 25.96 26.51 25.1765 26.51 24.21C26.51 23.2435 25.7265 22.46 24.76 22.46C23.7935 22.46 23.01 23.2435 23.01 24.21C23.01 25.1765 23.7935 25.96 24.76 25.96Z" fill="#1E1E1E"/>
<path d="M29.07 38.95C32.0026 38.95 34.38 36.5726 34.38 33.64C34.38 30.7074 32.0026 28.33 29.07 28.33C26.1374 28.33 23.76 30.7074 23.76 33.64C23.76 36.5726 26.1374 38.95 29.07 38.95Z" fill="#EA4335"/>
<path d="M29.07 40.7C25.17 40.7 22.01 37.53 22.01 33.64C22.01 29.75 25.18 26.58 29.07 26.58C32.96 26.58 36.13 29.75 36.13 33.64C36.13 37.53 32.96 40.7 29.07 40.7ZM29.07 30.07C27.1 30.07 25.51 31.67 25.51 33.63C25.51 35.59 27.11 37.19 29.07 37.19C31.03 37.19 32.63 35.59 32.63 33.63C32.63 31.67 31.03 30.07 29.07 30.07Z" fill="#1E1E1E"/>
</g>
<defs>
<clipPath id="clip0_64_93">
<rect width="46.02" height="67.28" fill="white"/>
</clipPath>
</defs>
</svg>
