<svg width="89" height="95" viewBox="0 0 89 95" fill="none" xmlns="http://www.w3.org/2000/svg">
<g clip-path="url(#clip0_64_40)">
<path d="M44.27 92.77C52.21 92.77 59.13 88.41 62.78 81.96C63.68 82.08 64.6 82.14 65.53 82.14C77.27 82.14 86.79 72.62 86.79 60.88C86.79 49.14 77.27 39.62 65.53 39.62C64.6 39.62 63.68 39.69 62.78 39.8C59.13 33.35 52.21 28.99 44.27 28.99C36.33 28.99 29.41 33.35 25.76 39.8C24.86 39.68 23.94 39.62 23.01 39.62C11.27 39.62 1.75 49.14 1.75 60.88C1.75 72.62 11.27 82.14 23.01 82.14C23.94 82.14 24.86 82.07 25.76 81.96C29.41 88.41 36.33 92.77 44.27 92.77Z" fill="#F9AB00"/>
<path d="M28.34 88.09C28.46 88.2 28.57 88.31 28.69 88.42C28.93 88.64 29.17 88.85 29.42 89.06C29.55 89.17 29.68 89.28 29.81 89.38C30.05 89.58 30.3 89.77 30.55 89.96C30.69 90.07 30.84 90.17 30.98 90.27C31.23 90.45 31.48 90.62 31.73 90.78C31.89 90.88 32.05 90.98 32.21 91.08C32.46 91.23 32.71 91.39 32.97 91.53C33.14 91.63 33.32 91.72 33.5 91.81C33.75 91.94 34 92.07 34.26 92.2C34.45 92.29 34.64 92.38 34.84 92.46C35.09 92.57 35.34 92.68 35.59 92.79C35.8 92.87 36.01 92.95 36.22 93.03C36.47 93.12 36.71 93.22 36.96 93.3C37.18 93.38 37.41 93.44 37.64 93.51C37.88 93.58 38.12 93.66 38.37 93.72C38.62 93.79 38.86 93.84 39.11 93.9C39.34 93.95 39.57 94.01 39.8 94.06C40.07 94.11 40.35 94.16 40.62 94.2C40.83 94.23 41.05 94.28 41.26 94.3C41.58 94.34 41.9 94.37 42.22 94.4C42.4 94.42 42.57 94.44 42.75 94.45C43.25 94.48 43.75 94.5 44.26 94.5C44.72 94.5 45.17 94.48 45.62 94.46C45.73 94.46 45.85 94.44 45.96 94.43C46.32 94.4 46.67 94.37 47.03 94.33C47.13 94.32 47.23 94.31 47.33 94.29C47.75 94.23 48.17 94.17 48.59 94.09C48.61 94.09 48.63 94.09 48.64 94.09C51.49 93.54 54.15 92.46 56.52 90.96C56.58 90.92 56.64 90.89 56.69 90.85C57.01 90.65 57.32 90.43 57.63 90.21C57.71 90.16 57.78 90.1 57.86 90.05C58.21 89.79 58.56 89.53 58.89 89.25C58.96 89.19 59.02 89.13 59.09 89.07C59.34 88.86 59.59 88.64 59.83 88.42C59.98 88.29 60.12 88.15 60.26 88.01C60.42 87.86 60.58 87.7 60.73 87.54C60.88 87.38 61.04 87.22 61.19 87.06C61.33 86.91 61.46 86.75 61.6 86.6C61.85 86.31 62.1 86.02 62.33 85.72C62.46 85.55 62.6 85.38 62.73 85.21C62.86 85.03 62.99 84.85 63.12 84.66C63.24 84.48 63.37 84.3 63.49 84.12C63.56 84.02 63.63 83.92 63.7 83.81C63.74 83.81 63.77 83.81 63.81 83.81C63.97 83.82 64.13 83.83 64.29 83.84C64.71 83.86 65.12 83.88 65.52 83.88C78.21 83.88 88.53 73.56 88.53 60.87C88.53 48.18 78.21 37.86 65.52 37.86C65.09 37.86 64.65 37.88 64.21 37.9C64.08 37.9 63.94 37.91 63.81 37.92C63.77 37.92 63.74 37.92 63.7 37.92C59.49 31.29 52.15 27.21 44.26 27.21C36.37 27.21 29.03 31.28 24.82 37.92C24.2 37.87 23.59 37.84 23 37.84C10.32 37.87 0 48.19 0 60.88C0 73.57 10.32 83.89 23.01 83.89C23.6 83.89 24.21 83.86 24.83 83.81C24.84 83.83 24.86 83.86 24.88 83.88C25.08 84.19 25.29 84.5 25.5 84.8C25.57 84.91 25.65 85.01 25.72 85.12C25.93 85.41 26.15 85.69 26.38 85.96C26.47 86.07 26.55 86.18 26.64 86.29C26.86 86.55 27.09 86.81 27.32 87.06C27.42 87.17 27.52 87.28 27.63 87.39C27.86 87.63 28.1 87.87 28.34 88.1V88.09ZM3.5 60.88C3.5 50.12 12.25 41.37 23.01 41.37C23.82 41.37 24.67 41.43 25.53 41.54C26.24 41.63 26.93 41.29 27.28 40.67C30.74 34.55 37.25 30.75 44.27 30.75C50.45 30.75 56.24 33.7 59.9 38.59C53.88 40.12 48.63 44.03 45.49 49.57C45.34 49.84 45.26 50.14 45.26 50.43C45.26 51.04 45.58 51.63 46.15 51.95C46.99 52.43 48.06 52.13 48.53 51.29C51.57 45.92 56.96 42.34 62.98 41.54C62.98 41.54 62.99 41.54 63 41.54C63.87 41.43 64.71 41.37 65.52 41.37C76.28 41.37 85.03 50.12 85.03 60.88C85.03 71.64 76.28 80.39 65.52 80.39C65.51 80.39 65.5 80.39 65.49 80.39C66.64 77.66 67.27 74.66 67.27 71.51C67.27 67.47 66.21 63.49 64.19 60C63.71 59.16 62.64 58.88 61.8 59.36C60.96 59.84 60.68 60.91 61.16 61.75C62.87 64.7 63.77 68.07 63.77 71.5C63.77 74.93 62.8 78.43 61.11 81.31C60.98 81.53 60.85 81.74 60.72 81.95C60.64 82.08 60.56 82.21 60.48 82.33C60.29 82.62 60.09 82.9 59.88 83.18C59.79 83.3 59.69 83.43 59.59 83.55C59.45 83.73 59.31 83.9 59.17 84.07C59.06 84.2 58.95 84.33 58.83 84.46C58.67 84.64 58.51 84.81 58.34 84.99C58.25 85.09 58.16 85.19 58.06 85.28C57.8 85.54 57.54 85.78 57.27 86.02C57.18 86.1 57.1 86.17 57.01 86.25C56.79 86.44 56.56 86.63 56.33 86.81C56.26 86.87 56.18 86.93 56.11 86.98C55.47 87.47 54.79 87.93 54.1 88.34C54.09 88.34 54.08 88.35 54.07 88.36C51.9 89.63 49.48 90.47 46.95 90.83C46.88 90.83 46.81 90.85 46.74 90.86C46.42 90.9 46.09 90.93 45.76 90.96C45.66 90.96 45.56 90.98 45.47 90.98C45.07 91 44.67 91.02 44.27 91.02C37.25 91.02 30.74 87.22 27.28 81.1C27.05 80.69 26.66 80.4 26.22 80.28C26.12 80.25 26.02 80.23 25.91 80.23C25.9 80.23 25.89 80.23 25.88 80.23C25.77 80.23 25.65 80.23 25.54 80.23C24.68 80.34 23.83 80.4 23.02 80.4C12.26 80.4 3.51 71.65 3.51 60.89L3.5 60.88Z" fill="#1E1E1E"/>
<path d="M18.8 55.55C19.7665 55.55 20.55 54.7665 20.55 53.8C20.55 52.8335 19.7665 52.05 18.8 52.05C17.8335 52.05 17.05 52.8335 17.05 53.8C17.05 54.7665 17.8335 55.55 18.8 55.55Z" fill="#1E1E1E"/>
<path d="M27.53 55.55C28.4965 55.55 29.28 54.7665 29.28 53.8C29.28 52.8335 28.4965 52.05 27.53 52.05C26.5635 52.05 25.78 52.8335 25.78 53.8C25.78 54.7665 26.5635 55.55 27.53 55.55Z" fill="#1E1E1E"/>
<path d="M78.81 12.37C81.7426 12.37 84.12 9.99263 84.12 7.06C84.12 4.12737 81.7426 1.75 78.81 1.75C75.8774 1.75 73.5 4.12737 73.5 7.06C73.5 9.99263 75.8774 12.37 78.81 12.37Z" fill="#F0F0F0"/>
<path d="M67.79 28.32H25.27V39.66H67.79V28.32Z" fill="#F0F0F0"/>
<path d="M46.53 7.06C34.79 7.06 25.27 16.58 25.27 28.32H67.79C67.79 20.57 69.87 13.32 73.49 7.06H46.53Z" fill="#EA4335"/>
<path d="M78.81 0C75.52 0 72.76 2.26 71.97 5.31H46.53C33.84 5.31 23.52 15.63 23.52 28.32V39.66C23.52 40.63 24.3 41.41 25.27 41.41H67.79C68.76 41.41 69.54 40.63 69.54 39.66V28.32C69.54 22.46 70.81 16.68 73.23 11.38C74.52 13.05 76.54 14.12 78.81 14.12C82.71 14.12 85.87 10.95 85.87 7.06C85.87 3.17 82.7 0 78.81 0ZM66.04 37.91H27.02V30.07H66.04V37.91ZM66.07 26.57H27.1C27.99 16.63 36.36 8.81 46.53 8.81H70.57C67.85 14.34 66.32 20.4 66.07 26.57ZM78.81 10.63C76.84 10.63 75.25 9.03 75.25 7.07C75.25 5.1 76.85 3.51 78.81 3.51C80.77 3.51 82.37 5.11 82.37 7.07C82.37 9.03 80.77 10.63 78.81 10.63Z" fill="#1E1E1E"/>
</g>
<defs>
<clipPath id="clip0_64_40">
<rect width="88.54" height="94.52" fill="white"/>
</clipPath>
</defs>
</svg>
