<svg width="89" height="95" viewBox="0 0 89 95" fill="none" xmlns="http://www.w3.org/2000/svg">
<g clip-path="url(#clip0_64_71)">
<path d="M44.27 28.58C36.33 28.58 29.41 32.94 25.76 39.39C24.86 39.27 23.94 39.21 23.01 39.21C11.27 39.21 1.75 48.73 1.75 60.47C1.75 72.21 11.27 81.73 23.01 81.73C23.94 81.73 24.86 81.66 25.76 81.55C29.41 88 36.33 92.36 44.27 92.36C52.21 92.36 59.13 88 62.78 81.55C63.68 81.67 64.6 81.73 65.53 81.73C77.27 81.73 86.79 72.21 86.79 60.47C86.79 48.73 77.27 39.21 65.53 39.21C64.6 39.21 63.68 39.28 62.78 39.39C59.13 32.94 52.21 28.58 44.27 28.58Z" fill="#F0F0F0"/>
<path d="M60.2 33.25C60.08 33.14 59.97 33.03 59.85 32.92C59.61 32.7 59.37 32.49 59.12 32.28C58.99 32.17 58.86 32.06 58.73 31.96C58.49 31.76 58.24 31.57 57.99 31.38C57.85 31.27 57.7 31.17 57.56 31.07C57.31 30.89 57.06 30.72 56.81 30.56C56.65 30.46 56.49 30.36 56.33 30.26C56.08 30.11 55.83 29.95 55.57 29.81C55.4 29.71 55.22 29.62 55.04 29.53C54.79 29.4 54.54 29.27 54.28 29.14C54.09 29.05 53.9 28.96 53.7 28.88C53.45 28.77 53.2 28.66 52.95 28.55C52.74 28.47 52.53 28.39 52.32 28.31C52.07 28.22 51.83 28.12 51.58 28.04C51.36 27.96 51.13 27.9 50.9 27.83C50.66 27.76 50.42 27.68 50.17 27.62C49.92 27.55 49.68 27.5 49.43 27.44C49.2 27.39 48.97 27.33 48.74 27.28C48.47 27.23 48.19 27.18 47.92 27.14C47.71 27.11 47.49 27.06 47.28 27.04C46.96 27 46.64 26.97 46.32 26.94C46.14 26.92 45.97 26.9 45.79 26.89C45.29 26.86 44.79 26.84 44.28 26.84C43.82 26.84 43.37 26.86 42.92 26.88C42.81 26.88 42.69 26.9 42.58 26.91C42.22 26.94 41.87 26.97 41.51 27.01C41.41 27.02 41.31 27.03 41.21 27.05C40.79 27.11 40.37 27.17 39.95 27.25C39.93 27.25 39.91 27.25 39.9 27.25C37.05 27.8 34.39 28.88 32.02 30.38C31.96 30.42 31.9 30.45 31.85 30.49C31.53 30.69 31.22 30.91 30.91 31.13C30.83 31.18 30.76 31.24 30.68 31.29C30.33 31.55 29.98 31.81 29.65 32.09C29.58 32.15 29.52 32.21 29.45 32.27C29.2 32.48 28.95 32.7 28.71 32.92C28.56 33.05 28.42 33.19 28.28 33.33C28.12 33.48 27.96 33.64 27.81 33.8C27.66 33.96 27.5 34.12 27.35 34.28C27.21 34.43 27.08 34.59 26.94 34.74C26.69 35.03 26.44 35.32 26.21 35.62C26.08 35.79 25.94 35.96 25.81 36.13C25.68 36.31 25.55 36.49 25.42 36.68C25.3 36.86 25.17 37.04 25.05 37.22C24.98 37.32 24.91 37.42 24.84 37.53C24.8 37.53 24.77 37.53 24.73 37.53C24.57 37.52 24.41 37.51 24.25 37.5C23.83 37.48 23.42 37.46 23.02 37.46C10.32 37.46 0 47.78 0 60.47C0 73.16 10.32 83.48 23.01 83.48C23.44 83.48 23.88 83.46 24.32 83.44C24.45 83.44 24.59 83.43 24.72 83.42C24.76 83.42 24.79 83.42 24.83 83.42C29.04 90.05 36.38 94.13 44.27 94.13C52.16 94.13 59.5 90.06 63.71 83.42C64.33 83.47 64.94 83.5 65.53 83.5C78.22 83.5 88.54 73.18 88.54 60.49C88.54 47.8 78.22 37.48 65.53 37.48C64.94 37.48 64.33 37.51 63.71 37.56C63.7 37.54 63.68 37.51 63.66 37.49C63.46 37.18 63.25 36.87 63.04 36.57C62.97 36.46 62.89 36.36 62.82 36.25C62.61 35.96 62.39 35.68 62.16 35.41C62.07 35.3 61.99 35.19 61.9 35.08C61.68 34.82 61.45 34.56 61.22 34.31C61.12 34.2 61.02 34.09 60.91 33.98C60.68 33.74 60.44 33.5 60.2 33.27V33.25ZM85.04 60.47C85.04 71.23 76.29 79.98 65.53 79.98C64.72 79.98 63.87 79.92 63.01 79.81C62.3 79.72 61.61 80.06 61.26 80.68C57.8 86.8 51.29 90.6 44.27 90.6C38.09 90.6 32.3 87.65 28.64 82.76C34.66 81.23 39.91 77.32 43.05 71.78C43.2 71.51 43.28 71.21 43.28 70.92C43.28 70.31 42.96 69.72 42.39 69.4C41.55 68.92 40.48 69.22 40.01 70.06C36.97 75.43 31.58 79.01 25.56 79.81C25.56 79.81 25.55 79.81 25.54 79.81C24.67 79.92 23.83 79.98 23.02 79.98C12.26 79.98 3.51 71.23 3.51 60.47C3.51 49.71 12.26 40.96 23.02 40.96C23.03 40.96 23.04 40.96 23.05 40.96C21.9 43.69 21.27 46.69 21.27 49.84C21.27 53.88 22.33 57.86 24.35 61.35C24.83 62.19 25.9 62.47 26.74 61.99C27.58 61.51 27.86 60.44 27.38 59.6C25.67 56.65 24.77 53.28 24.77 49.85C24.77 46.42 25.74 42.92 27.43 40.04C27.56 39.82 27.69 39.61 27.82 39.4C27.9 39.27 27.98 39.14 28.06 39.02C28.25 38.73 28.45 38.45 28.66 38.17C28.75 38.05 28.85 37.92 28.95 37.8C29.09 37.62 29.23 37.45 29.37 37.28C29.48 37.15 29.59 37.02 29.71 36.89C29.87 36.71 30.03 36.54 30.2 36.36C30.29 36.26 30.38 36.16 30.48 36.07C30.74 35.81 31 35.57 31.27 35.33C31.36 35.25 31.44 35.18 31.53 35.1C31.75 34.91 31.98 34.72 32.21 34.54C32.28 34.48 32.36 34.42 32.43 34.37C33.07 33.88 33.75 33.42 34.44 33.01C34.45 33.01 34.46 33 34.47 32.99C36.64 31.72 39.06 30.88 41.59 30.52C41.66 30.52 41.73 30.5 41.8 30.49C42.12 30.45 42.45 30.42 42.78 30.39C42.88 30.39 42.98 30.37 43.07 30.37C43.47 30.35 43.87 30.33 44.27 30.33C51.29 30.33 57.8 34.13 61.26 40.25C61.49 40.66 61.88 40.95 62.32 41.07C62.42 41.1 62.52 41.12 62.63 41.12C62.64 41.12 62.65 41.12 62.66 41.12C62.77 41.12 62.89 41.12 63 41.12C63.86 41.01 64.71 40.95 65.52 40.95C76.28 40.95 85.03 49.7 85.03 60.46L85.04 60.47Z" fill="#1E1E1E"/>
<path d="M69.74 69.3C70.7065 69.3 71.49 68.5165 71.49 67.55C71.49 66.5835 70.7065 65.8 69.74 65.8C68.7735 65.8 67.99 66.5835 67.99 67.55C67.99 68.5165 68.7735 69.3 69.74 69.3Z" fill="#1E1E1E"/>
<path d="M61.01 69.3C61.9765 69.3 62.76 68.5165 62.76 67.55C62.76 66.5835 61.9765 65.8 61.01 65.8C60.0435 65.8 59.26 66.5835 59.26 67.55C59.26 68.5165 60.0435 69.3 61.01 69.3Z" fill="#1E1E1E"/>
<path d="M12.7 12.37C15.6326 12.37 18.01 9.99263 18.01 7.06C18.01 4.12737 15.6326 1.75 12.7 1.75C9.76738 1.75 7.39001 4.12737 7.39001 7.06C7.39001 9.99263 9.76738 12.37 12.7 12.37Z" fill="#F0F0F0"/>
<path d="M23.72 39.67L66.24 39.67V28.33L23.72 28.33V39.67Z" fill="#F0F0F0"/>
<path d="M44.98 7.06C56.72 7.06 66.24 16.58 66.24 28.32H23.72C23.72 20.57 21.64 13.32 18.02 7.06H44.98Z" fill="#EA4335"/>
<path d="M5.64001 7.06C5.64001 10.96 8.81001 14.12 12.7 14.12C14.97 14.12 16.98 13.04 18.28 11.38C20.7 16.68 21.97 22.46 21.97 28.32V39.66C21.97 40.63 22.75 41.41 23.72 41.41H66.24C67.21 41.41 67.99 40.63 67.99 39.66V28.32C67.99 15.63 57.67 5.31 44.98 5.31H19.54C18.76 2.26 15.99 0 12.7 0C8.80001 0 5.64001 3.17 5.64001 7.06ZM25.47 30.07H64.49V37.91H25.47V30.07ZM20.94 8.81H44.98C55.15 8.81 63.52 16.63 64.41 26.57H25.44C25.19 20.4 23.66 14.34 20.94 8.81ZM9.14002 7.06C9.14002 5.09 10.74 3.5 12.7 3.5C14.66 3.5 16.26 5.1 16.26 7.06C16.26 9.03 14.66 10.62 12.7 10.62C10.74 10.62 9.14002 9.02 9.14002 7.06Z" fill="#1E1E1E"/>
</g>
<defs>
<clipPath id="clip0_64_71">
<rect width="88.54" height="94.11" fill="white"/>
</clipPath>
</defs>
</svg>
