<svg width="68" height="65" viewBox="0 0 68 65" fill="none" xmlns="http://www.w3.org/2000/svg">
<g clip-path="url(#clip0_64_22)">
<path d="M65.53 23.01C65.53 11.27 56.01 1.75 44.27 1.75C40.4 1.75 36.77 2.79 33.64 4.6C30.51 2.79 26.88 1.75 23.01 1.75C11.27 1.75 1.75 11.27 1.75 23.01C1.75 30.88 6.03 37.74 12.38 41.42C12.38 53.16 21.9 62.68 33.64 62.68C45.38 62.68 54.9 53.16 54.9 41.42C61.25 37.74 65.53 30.88 65.53 23.01Z" fill="#34A853"/>
<path d="M60.92 38.87C61.03 38.76 61.13 38.64 61.24 38.53C61.46 38.29 61.68 38.04 61.89 37.79C62 37.66 62.1 37.54 62.2 37.41C62.4 37.16 62.59 36.91 62.78 36.66C62.88 36.52 62.98 36.38 63.08 36.24C63.26 35.99 63.43 35.74 63.6 35.48C63.7 35.33 63.8 35.17 63.89 35.01C64.05 34.76 64.2 34.5 64.34 34.24C64.44 34.07 64.52 33.9 64.62 33.72C64.75 33.47 64.89 33.21 65.01 32.95C65.1 32.76 65.18 32.57 65.27 32.38C65.38 32.13 65.5 31.88 65.6 31.62C65.68 31.42 65.76 31.21 65.83 31C65.92 30.75 66.02 30.5 66.1 30.25C66.17 30.03 66.24 29.8 66.31 29.58C66.38 29.34 66.46 29.1 66.52 28.85C66.58 28.61 66.64 28.36 66.69 28.12C66.74 27.89 66.8 27.66 66.85 27.43C66.9 27.16 66.94 26.89 66.99 26.61C67.02 26.4 67.06 26.19 67.09 25.97C67.13 25.65 67.16 25.34 67.19 25.02C67.21 24.84 67.23 24.67 67.24 24.5C67.27 24 67.29 23.5 67.29 23C67.29 10.31 56.97 -0.0100293 44.28 -0.0100293C43.84 -0.0100293 43.41 0.0099707 42.97 0.0299707C42.86 0.0299707 42.75 0.0499707 42.64 0.0499707C42.31 0.0699707 41.97 0.0999707 41.64 0.139971C41.53 0.149971 41.42 0.169971 41.31 0.179971C40.97 0.219971 40.63 0.279971 40.29 0.329971C40.2 0.349971 40.11 0.359971 40.02 0.379971C39.64 0.449971 39.26 0.529971 38.88 0.619971C38.84 0.629971 38.79 0.639971 38.75 0.649971C37.88 0.869971 37.03 1.12997 36.2 1.43997C36.14 1.45997 36.08 1.48997 36.01 1.50997C35.68 1.63997 35.36 1.76997 35.04 1.90997C34.91 1.96997 34.79 2.01997 34.66 2.07997C34.41 2.19997 34.16 2.31997 33.91 2.43997C33.82 2.48997 33.72 2.52997 33.63 2.56997C30.36 0.859971 26.7 -0.0300293 23 -0.0300293C10.32 -2.92975e-05 0 10.32 0 23.01C0 30.86 4.06 38.21 10.65 42.42C10.65 42.45 10.65 42.49 10.65 42.52C10.65 42.69 10.67 42.87 10.69 43.04C10.7 43.25 10.72 43.46 10.74 43.67C10.76 43.84 10.78 44.02 10.8 44.19C10.82 44.4 10.85 44.6 10.88 44.81C10.91 44.98 10.94 45.15 10.97 45.32C11 45.52 11.04 45.73 11.08 45.93C11.11 46.1 11.15 46.27 11.19 46.44C11.23 46.64 11.28 46.84 11.33 47.03C11.37 47.2 11.42 47.37 11.47 47.53C11.52 47.72 11.58 47.92 11.63 48.11C11.68 48.28 11.74 48.44 11.79 48.61C11.85 48.8 11.91 48.99 11.98 49.17C12.04 49.33 12.1 49.5 12.16 49.66C12.23 49.84 12.3 50.03 12.38 50.21C12.45 50.37 12.52 50.53 12.59 50.69C12.67 50.87 12.75 51.05 12.83 51.22C12.9 51.38 12.98 51.53 13.06 51.69C13.15 51.86 13.23 52.04 13.32 52.21C13.4 52.36 13.49 52.51 13.57 52.67C13.66 52.84 13.76 53.01 13.86 53.17C13.95 53.32 14.04 53.47 14.13 53.61C14.23 53.77 14.33 53.93 14.44 54.09C14.54 54.23 14.63 54.38 14.73 54.52C14.84 54.68 14.95 54.83 15.06 54.99C15.16 55.13 15.27 55.27 15.37 55.41C15.49 55.56 15.6 55.71 15.72 55.86C15.83 55.99 15.94 56.13 16.05 56.26C16.17 56.41 16.3 56.55 16.42 56.69C16.54 56.82 16.65 56.95 16.77 57.08C16.9 57.22 17.03 57.36 17.16 57.49C17.28 57.61 17.4 57.74 17.53 57.86C17.67 57.99 17.8 58.12 17.94 58.25C18.07 58.37 18.19 58.49 18.32 58.6C18.46 58.73 18.61 58.85 18.75 58.97C18.88 59.08 19.01 59.19 19.15 59.3C19.3 59.42 19.45 59.54 19.6 59.65C19.74 59.76 19.87 59.86 20.01 59.96C20.16 60.07 20.32 60.18 20.48 60.29C20.62 60.39 20.76 60.49 20.91 60.59C21.07 60.7 21.23 60.8 21.39 60.9C21.54 60.99 21.68 61.09 21.83 61.17C22 61.27 22.16 61.36 22.33 61.46C22.48 61.55 22.63 61.63 22.78 61.71C22.95 61.8 23.12 61.89 23.3 61.98C23.45 62.06 23.61 62.14 23.77 62.21C23.95 62.29 24.13 62.37 24.3 62.45C24.46 62.52 24.61 62.59 24.77 62.66C24.95 62.74 25.14 62.81 25.32 62.88C25.48 62.94 25.64 63.01 25.8 63.06C25.99 63.13 26.18 63.19 26.37 63.25C26.53 63.3 26.69 63.36 26.86 63.41C27.05 63.47 27.25 63.52 27.45 63.58C27.61 63.63 27.78 63.67 27.94 63.72C28.14 63.77 28.35 63.82 28.55 63.86C28.71 63.9 28.87 63.94 29.04 63.97C29.25 64.01 29.47 64.05 29.68 64.08C29.84 64.11 30 64.14 30.16 64.16C30.39 64.19 30.62 64.22 30.84 64.25C30.99 64.27 31.14 64.29 31.29 64.31C31.55 64.34 31.8 64.35 32.06 64.37C32.19 64.37 32.31 64.39 32.44 64.4C32.83 64.42 33.22 64.43 33.61 64.43C34 64.43 34.39 64.42 34.78 64.4C34.91 64.4 35.03 64.38 35.16 64.37C35.42 64.35 35.68 64.34 35.93 64.31C36.08 64.29 36.23 64.27 36.38 64.25C36.61 64.22 36.84 64.2 37.06 64.16C37.22 64.14 37.38 64.1 37.54 64.08C37.75 64.04 37.97 64.01 38.18 63.97C38.35 63.94 38.51 63.9 38.67 63.86C38.87 63.81 39.08 63.77 39.28 63.72C39.45 63.68 39.61 63.63 39.77 63.58C39.96 63.53 40.16 63.47 40.35 63.41C40.52 63.36 40.68 63.3 40.85 63.25C41.04 63.19 41.23 63.13 41.41 63.06C41.58 63 41.74 62.93 41.9 62.87C42.08 62.8 42.26 62.73 42.44 62.66C42.6 62.59 42.77 62.52 42.93 62.45C43.1 62.37 43.28 62.3 43.45 62.21C43.61 62.13 43.77 62.05 43.93 61.97C44.1 61.89 44.26 61.8 44.43 61.71C44.59 61.62 44.75 61.53 44.91 61.44C45.07 61.35 45.23 61.26 45.39 61.17C45.55 61.08 45.7 60.98 45.86 60.88C46.01 60.78 46.17 60.69 46.32 60.59C46.48 60.49 46.63 60.38 46.78 60.27C46.93 60.17 47.07 60.07 47.21 59.96C47.36 59.85 47.51 59.73 47.66 59.62C47.8 59.51 47.94 59.41 48.07 59.3C48.22 59.18 48.36 59.06 48.51 58.93C48.64 58.82 48.77 58.71 48.9 58.59C49.04 58.46 49.19 58.33 49.33 58.2C49.45 58.08 49.58 57.97 49.7 57.85C49.84 57.71 49.98 57.57 50.11 57.43C50.23 57.31 50.34 57.19 50.45 57.07C50.59 56.92 50.72 56.78 50.85 56.63C50.96 56.51 51.06 56.39 51.17 56.26C51.3 56.11 51.43 55.95 51.56 55.79C51.66 55.67 51.76 55.54 51.86 55.41C51.98 55.25 52.11 55.08 52.23 54.92C52.32 54.79 52.41 54.66 52.5 54.53C52.62 54.36 52.74 54.19 52.85 54.01C52.94 53.88 53.02 53.75 53.1 53.62C53.21 53.44 53.32 53.26 53.43 53.08C53.51 52.95 53.58 52.82 53.66 52.68C53.76 52.49 53.87 52.31 53.97 52.12C54.04 51.99 54.11 51.85 54.18 51.72C54.28 51.53 54.37 51.33 54.47 51.14C54.53 51 54.59 50.87 54.65 50.73C54.74 50.53 54.83 50.33 54.91 50.13C54.97 49.99 55.02 49.85 55.07 49.71C55.15 49.51 55.23 49.3 55.3 49.09C55.35 48.95 55.4 48.81 55.44 48.67C55.51 48.46 55.58 48.25 55.64 48.04C55.68 47.9 55.72 47.75 55.76 47.61C55.82 47.4 55.88 47.18 55.93 46.97C55.97 46.82 56 46.67 56.03 46.52C56.08 46.3 56.13 46.09 56.17 45.87C56.2 45.72 56.23 45.56 56.25 45.4C56.29 45.18 56.33 44.97 56.36 44.75C56.38 44.59 56.4 44.42 56.42 44.26C56.45 44.05 56.47 43.83 56.5 43.62C56.52 43.45 56.53 43.27 56.54 43.1C56.56 42.89 56.57 42.69 56.58 42.48C56.58 42.45 56.58 42.42 56.58 42.39C56.62 42.37 56.65 42.34 56.68 42.32C56.99 42.12 57.29 41.91 57.59 41.7C57.7 41.62 57.8 41.55 57.91 41.47C58.2 41.26 58.48 41.04 58.75 40.81C58.86 40.72 58.96 40.64 59.07 40.55C59.33 40.33 59.59 40.1 59.85 39.86C59.96 39.76 60.06 39.66 60.17 39.56C60.41 39.33 60.65 39.09 60.88 38.84L60.92 38.87ZM30.67 60.71C21.32 59.28 14.13 51.17 14.13 41.42C14.13 41.31 14.12 41.21 14.1 41.1C14.1 41.08 14.1 41.06 14.09 41.04C14.04 40.83 13.96 40.63 13.84 40.45C13.84 40.45 13.84 40.44 13.83 40.43C13.68 40.22 13.49 40.03 13.26 39.9C7.24 36.42 3.5 29.94 3.5 23C3.5 12.25 12.25 3.49997 23.01 3.49997C25.46 3.49997 27.88 3.96997 30.15 4.85997C24.75 9.06997 21.26 15.64 21.26 23.01C21.26 23.98 22.04 24.76 23.01 24.76C23.98 24.76 24.76 23.98 24.76 23.01C24.76 15.72 28.78 9.35997 34.72 6.00997C34.96 5.87997 35.2 5.74997 35.44 5.61997C35.53 5.56997 35.62 5.51997 35.72 5.47997C36.07 5.30997 36.42 5.14997 36.78 4.99997C36.82 4.97997 36.86 4.96997 36.91 4.94997C37.24 4.81997 37.57 4.68997 37.91 4.56997C37.98 4.54997 38.05 4.51997 38.11 4.49997C38.46 4.37997 38.82 4.26997 39.18 4.17997C39.2 4.17997 39.22 4.16997 39.24 4.15997C40.02 3.94997 40.81 3.79997 41.61 3.67997C41.7 3.66997 41.79 3.65997 41.87 3.64997C42.18 3.60997 42.49 3.57997 42.79 3.55997C42.89 3.55997 42.99 3.53997 43.09 3.53997C43.48 3.51997 43.87 3.49997 44.27 3.49997C55.03 3.49997 63.78 12.25 63.78 23.01C63.78 28.97 61.02 34.58 56.43 38.25C55.45 31.3 51.32 25.06 45.15 21.49C44.31 21.01 43.24 21.29 42.76 22.13C42.28 22.97 42.56 24.04 43.4 24.52C49.42 28 53.16 34.48 53.16 41.42C53.16 52.18 44.41 60.93 33.65 60.93C32.64 60.93 31.65 60.85 30.68 60.7L30.67 60.71Z" fill="#1E1E1E"/>
<path d="M24.92 43.4C25.8865 43.4 26.67 42.6165 26.67 41.65C26.67 40.6835 25.8865 39.9 24.92 39.9C23.9535 39.9 23.17 40.6835 23.17 41.65C23.17 42.6165 23.9535 43.4 24.92 43.4Z" fill="#1E1E1E"/>
<path d="M33.65 43.4C34.6165 43.4 35.4 42.6165 35.4 41.65C35.4 40.6835 34.6165 39.9 33.65 39.9C32.6835 39.9 31.9 40.6835 31.9 41.65C31.9 42.6165 32.6835 43.4 33.65 43.4Z" fill="#1E1E1E"/>
<path d="M28.84 55.86C31.7727 55.86 34.15 53.4826 34.15 50.55C34.15 47.6174 31.7727 45.24 28.84 45.24C25.9074 45.24 23.53 47.6174 23.53 50.55C23.53 53.4826 25.9074 55.86 28.84 55.86Z" fill="#EA4335"/>
<path d="M28.84 57.61C24.94 57.61 21.78 54.44 21.78 50.55C21.78 46.66 24.95 43.49 28.84 43.49C32.73 43.49 35.9 46.66 35.9 50.55C35.9 54.44 32.73 57.61 28.84 57.61ZM28.84 46.98C26.87 46.98 25.28 48.58 25.28 50.54C25.28 52.5 26.88 54.1 28.84 54.1C30.8 54.1 32.4 52.5 32.4 50.54C32.4 48.58 30.8 46.98 28.84 46.98Z" fill="#1E1E1E"/>
</g>
<defs>
<clipPath id="clip0_64_22">
<rect width="67.28" height="64.43" fill="white"/>
</clipPath>
</defs>
</svg>
