<svg width="73" height="103" viewBox="0 0 73 103" fill="none" xmlns="http://www.w3.org/2000/svg">
<g clip-path="url(#clip0_64_30)">
<path d="M71.2 58.57C71.2 46.83 61.68 37.31 49.94 37.31C46.07 37.31 42.44 38.35 39.31 40.16C36.18 38.35 32.55 37.31 28.68 37.31C16.94 37.31 7.42001 46.83 7.42001 58.57C7.42001 62.44 8.46001 66.07 10.27 69.2C8.46001 72.33 7.42001 75.96 7.42001 79.83C7.42001 91.57 16.94 101.09 28.68 101.09C32.55 101.09 36.18 100.05 39.31 98.24C42.44 100.05 46.07 101.09 49.94 101.09C61.68 101.09 71.2 91.57 71.2 79.83C71.2 75.96 70.16 72.33 68.35 69.2C70.16 66.07 71.2 62.44 71.2 58.57Z" fill="#F0F0F0"/>
<path d="M70.4 69.08C70.55 68.79 70.69 68.49 70.83 68.19C70.89 68.05 70.96 67.91 71.02 67.77C71.15 67.48 71.26 67.19 71.38 66.9C71.44 66.74 71.5 66.58 71.56 66.42C71.66 66.14 71.76 65.86 71.85 65.58C71.91 65.4 71.96 65.21 72.02 65.03C72.1 64.76 72.17 64.5 72.24 64.23C72.29 64.02 72.34 63.81 72.39 63.6C72.45 63.35 72.5 63.1 72.55 62.85C72.6 62.61 72.63 62.36 72.67 62.12C72.71 61.89 72.74 61.67 72.77 61.44C72.81 61.15 72.83 60.85 72.86 60.55C72.88 60.37 72.9 60.19 72.91 60C72.94 59.52 72.96 59.04 72.96 58.55C72.96 45.86 62.64 35.54 49.95 35.54C49.51 35.54 49.08 35.56 48.64 35.58C48.53 35.58 48.42 35.6 48.31 35.6C47.98 35.62 47.64 35.65 47.31 35.69C47.2 35.7 47.09 35.72 46.98 35.73C46.64 35.77 46.3 35.83 45.96 35.88C45.87 35.9 45.78 35.91 45.69 35.93C45.3 36 44.92 36.08 44.55 36.17C44.51 36.17 44.47 36.19 44.43 36.2C43.56 36.42 42.7 36.68 41.87 36.99C41.81 37.01 41.76 37.03 41.7 37.06C41.36 37.19 41.03 37.33 40.7 37.47C40.58 37.52 40.46 37.58 40.34 37.63C40.08 37.75 39.82 37.88 39.56 38.01C39.47 38.05 39.38 38.09 39.3 38.14C36.03 36.43 32.37 35.54 28.67 35.54C15.98 35.54 5.66 45.86 5.66 58.55C5.66 62.25 6.56 65.91 8.26 69.18C8.24 69.22 8.23 69.25 8.21 69.29C8.06 69.59 7.91 69.89 7.77 70.2C7.71 70.33 7.65 70.46 7.59 70.6C7.46 70.89 7.34 71.18 7.23 71.48C7.17 71.64 7.11 71.79 7.05 71.95C6.95 72.23 6.85 72.51 6.76 72.8C6.7 72.98 6.65 73.16 6.6 73.34C6.52 73.61 6.44 73.88 6.38 74.15C6.33 74.36 6.28 74.57 6.23 74.78C6.17 75.03 6.12 75.28 6.07 75.54C6.02 75.78 5.99 76.03 5.95 76.27C5.91 76.5 5.88 76.72 5.85 76.95C5.81 77.24 5.79 77.54 5.76 77.84C5.74 78.02 5.72 78.2 5.71 78.38C5.68 78.86 5.66 79.34 5.66 79.83C5.66 92.52 15.98 102.84 28.67 102.84C29.11 102.84 29.54 102.82 29.98 102.8C30.09 102.8 30.2 102.78 30.31 102.78C30.64 102.76 30.98 102.73 31.31 102.69C31.42 102.68 31.53 102.66 31.64 102.65C31.98 102.61 32.32 102.55 32.66 102.5C32.75 102.48 32.84 102.47 32.93 102.45C33.31 102.38 33.69 102.3 34.07 102.21C34.11 102.2 34.15 102.19 34.2 102.18C35.07 101.96 35.93 101.7 36.76 101.39C36.82 101.37 36.87 101.34 36.93 101.32C37.26 101.19 37.59 101.06 37.92 100.91C38.04 100.86 38.16 100.8 38.28 100.75C38.54 100.63 38.8 100.5 39.05 100.38C39.14 100.34 39.23 100.3 39.31 100.25C42.58 101.96 46.24 102.85 49.94 102.85C62.63 102.85 72.95 92.53 72.95 79.84C72.95 76.14 72.05 72.48 70.35 69.21C70.37 69.17 70.39 69.13 70.41 69.09L70.4 69.08ZM49.94 99.34C47.49 99.34 45.07 98.87 42.8 97.98C48.2 93.77 51.69 87.2 51.69 79.83C51.69 78.86 50.91 78.08 49.94 78.08C48.97 78.08 48.19 78.86 48.19 79.83C48.19 87.11 44.17 93.47 38.24 96.83C37.99 96.97 37.74 97.11 37.48 97.24C37.4 97.28 37.31 97.33 37.23 97.37C36.88 97.54 36.52 97.7 36.16 97.85C36.13 97.86 36.09 97.88 36.06 97.89C35.72 98.03 35.38 98.16 35.04 98.28C34.98 98.3 34.91 98.32 34.85 98.34C34.49 98.46 34.13 98.57 33.76 98.67C33.74 98.67 33.73 98.67 33.71 98.68C32.93 98.89 32.14 99.05 31.34 99.16C31.25 99.17 31.17 99.18 31.08 99.19C30.77 99.23 30.46 99.26 30.15 99.28C30.05 99.28 29.95 99.3 29.85 99.3C29.46 99.32 29.07 99.34 28.67 99.34C17.91 99.34 9.16 90.59 9.16 79.83C9.16 76.41 10.06 73.03 11.78 70.08C12.07 69.57 12.09 68.96 11.84 68.44C11.84 68.44 11.84 68.44 11.84 68.43C11.82 68.4 11.81 68.36 11.79 68.33C10.08 65.37 9.17 62 9.17 58.58C9.17 47.82 17.92 39.07 28.68 39.07C31.13 39.07 33.55 39.54 35.82 40.43C30.42 44.64 26.93 51.21 26.93 58.58C26.93 59.55 27.71 60.33 28.68 60.33C29.65 60.33 30.43 59.55 30.43 58.58C30.43 51.29 34.45 44.93 40.38 41.58C40.63 41.44 40.88 41.31 41.13 41.18C41.21 41.14 41.3 41.09 41.38 41.05C41.73 40.88 42.09 40.71 42.45 40.56C42.48 40.55 42.51 40.54 42.54 40.52C42.88 40.38 43.22 40.25 43.57 40.13C43.63 40.11 43.69 40.09 43.75 40.07C44.11 39.95 44.48 39.84 44.85 39.74C44.86 39.74 44.88 39.74 44.89 39.73C45.67 39.52 46.47 39.36 47.27 39.25C47.36 39.24 47.44 39.23 47.53 39.22C47.84 39.18 48.15 39.15 48.46 39.13C48.56 39.13 48.66 39.11 48.76 39.11C49.15 39.09 49.54 39.07 49.94 39.07C60.7 39.07 69.45 47.82 69.45 58.58C69.45 62 68.55 65.38 66.83 68.33C66.52 68.87 66.52 69.54 66.83 70.08C68.54 73.04 69.45 76.41 69.45 79.83C69.45 90.59 60.7 99.34 49.94 99.34Z" fill="#1E1E1E"/>
<path d="M46.16 63.87C47.1265 63.87 47.91 63.0865 47.91 62.12C47.91 61.1535 47.1265 60.37 46.16 60.37C45.1935 60.37 44.41 61.1535 44.41 62.12C44.41 63.0865 45.1935 63.87 46.16 63.87Z" fill="#1E1E1E"/>
<path d="M54.89 63.87C55.8565 63.87 56.64 63.0865 56.64 62.12C56.64 61.1535 55.8565 60.37 54.89 60.37C53.9235 60.37 53.14 61.1535 53.14 62.12C53.14 63.0865 53.9235 63.87 54.89 63.87Z" fill="#1E1E1E"/>
<path d="M7.07001 12.37C10.0026 12.37 12.38 9.99263 12.38 7.06C12.38 4.12737 10.0026 1.75 7.07001 1.75C4.13738 1.75 1.76001 4.12737 1.76001 7.06C1.76001 9.99263 4.13738 12.37 7.07001 12.37Z" fill="#F0F0F0"/>
<path d="M18.08 39.67L60.6 39.67V28.33L18.08 28.33V39.67Z" fill="#F0F0F0"/>
<path d="M39.34 7.06C51.08 7.06 60.6 16.58 60.6 28.32H18.08C18.08 20.57 16 13.32 12.38 7.06H39.34Z" fill="#EA4335"/>
<path d="M0 7.06C0 10.96 3.17 14.12 7.06 14.12C9.33 14.12 11.34 13.04 12.64 11.38C15.06 16.68 16.33 22.46 16.33 28.32V39.66C16.33 40.63 17.11 41.41 18.08 41.41H60.6C61.57 41.41 62.35 40.63 62.35 39.66V28.32C62.35 15.63 52.03 5.31 39.34 5.31H13.9C13.12 2.26 10.36 0 7.06 0C3.17 0 0 3.17 0 7.06ZM19.83 30.07H58.85V37.91H19.83V30.07ZM15.3 8.81H39.34C49.51 8.81 57.88 16.63 58.77 26.57H19.8C19.55 20.4 18.02 14.34 15.3 8.81ZM3.5 7.06C3.5 5.09 5.1 3.5 7.06 3.5C9.02 3.5 10.62 5.1 10.62 7.06C10.62 9.03 9.02 10.62 7.06 10.62C5.1 10.62 3.5 9.02 3.5 7.06Z" fill="#1E1E1E"/>
</g>
<defs>
<clipPath id="clip0_64_30">
<rect width="72.95" height="102.84" fill="white"/>
</clipPath>
</defs>
</svg>
