<svg width="73" height="89" viewBox="0 0 73 89" fill="none" xmlns="http://www.w3.org/2000/svg">
<g clip-path="url(#clip0_64_81)">
<path d="M7.19 65.4C7.19 77.14 16.71 86.66 28.45 86.66C32.32 86.66 35.95 85.62 39.08 83.81C42.21 85.62 45.84 86.66 49.71 86.66C61.45 86.66 70.97 77.14 70.97 65.4C70.97 57.53 66.69 50.67 60.34 46.99C60.34 35.25 50.82 25.73 39.08 25.73C27.34 25.73 17.82 35.25 17.82 46.99C11.47 50.67 7.19 57.53 7.19 65.4Z" fill="#F9AB00"/>
<path d="M11.8 49.54C11.69 49.65 11.59 49.77 11.48 49.88C11.26 50.12 11.04 50.37 10.83 50.62C10.72 50.75 10.62 50.87 10.52 51C10.32 51.25 10.13 51.5 9.93999 51.75C9.83999 51.89 9.73999 52.03 9.63999 52.17C9.45999 52.42 9.28999 52.67 9.11999 52.93C9.01999 53.08 8.91999 53.24 8.82999 53.4C8.66999 53.65 8.51999 53.91 8.37999 54.17C8.27999 54.34 8.19999 54.51 8.09999 54.69C7.96999 54.94 7.82999 55.2 7.70999 55.46C7.61999 55.65 7.53999 55.84 7.44999 56.03C7.33999 56.28 7.21999 56.53 7.11999 56.79C7.03999 56.99 6.95999 57.2 6.88999 57.41C6.79999 57.66 6.69999 57.91 6.61999 58.16C6.54999 58.38 6.47999 58.61 6.40999 58.83C6.33999 59.07 6.25999 59.31 6.19999 59.56C6.13999 59.8 6.07999 60.05 6.02999 60.29C5.97999 60.52 5.91999 60.75 5.86999 60.98C5.81999 61.25 5.77999 61.52 5.72999 61.8C5.69999 62.01 5.65999 62.22 5.62999 62.44C5.58999 62.76 5.55999 63.07 5.52999 63.39C5.50999 63.57 5.48999 63.74 5.47999 63.91C5.44999 64.41 5.42999 64.91 5.42999 65.41C5.42999 78.1 15.75 88.42 28.44 88.42C28.88 88.42 29.31 88.4 29.75 88.38C29.86 88.38 29.97 88.36 30.08 88.36C30.41 88.34 30.75 88.31 31.08 88.27C31.19 88.26 31.3 88.24 31.41 88.23C31.75 88.19 32.09 88.13 32.43 88.08C32.52 88.06 32.61 88.05 32.7 88.03C33.08 87.96 33.46 87.88 33.84 87.79C33.88 87.78 33.93 87.77 33.97 87.76C34.84 87.54 35.69 87.28 36.52 86.97C36.58 86.95 36.64 86.92 36.71 86.9C37.04 86.77 37.36 86.64 37.68 86.5C37.81 86.44 37.93 86.39 38.06 86.33C38.31 86.21 38.56 86.09 38.81 85.97C38.9 85.92 39 85.88 39.09 85.84C42.36 87.55 46.02 88.44 49.72 88.44C62.41 88.44 72.73 78.12 72.73 65.43C72.73 57.58 68.67 50.23 62.08 46.02C62.08 45.99 62.08 45.95 62.08 45.92C62.08 45.75 62.06 45.57 62.04 45.4C62.03 45.19 62.01 44.98 61.99 44.77C61.97 44.6 61.95 44.42 61.93 44.25C61.91 44.04 61.88 43.84 61.85 43.63C61.82 43.46 61.79 43.29 61.76 43.12C61.73 42.92 61.69 42.71 61.65 42.51C61.62 42.34 61.58 42.17 61.54 42C61.5 41.8 61.45 41.6 61.4 41.41C61.36 41.24 61.31 41.07 61.26 40.91C61.21 40.72 61.15 40.52 61.1 40.33C61.05 40.16 60.99 40 60.94 39.83C60.88 39.64 60.82 39.45 60.75 39.27C60.69 39.11 60.63 38.94 60.57 38.78C60.5 38.6 60.43 38.41 60.35 38.23C60.28 38.07 60.21 37.91 60.14 37.75C60.06 37.57 59.98 37.39 59.9 37.22C59.83 37.06 59.75 36.91 59.67 36.75C59.58 36.58 59.5 36.4 59.41 36.23C59.33 36.08 59.24 35.93 59.16 35.77C59.07 35.6 58.97 35.43 58.87 35.27C58.78 35.12 58.69 34.97 58.6 34.83C58.5 34.67 58.4 34.51 58.29 34.35C58.19 34.21 58.1 34.06 58 33.92C57.89 33.76 57.78 33.61 57.67 33.45C57.57 33.31 57.46 33.17 57.36 33.03C57.24 32.88 57.13 32.73 57.01 32.58C56.9 32.45 56.79 32.31 56.68 32.18C56.56 32.03 56.43 31.89 56.31 31.75C56.19 31.62 56.08 31.49 55.96 31.36C55.83 31.22 55.7 31.08 55.57 30.95C55.45 30.83 55.33 30.7 55.2 30.58C55.06 30.45 54.93 30.32 54.79 30.19C54.66 30.07 54.54 29.95 54.41 29.84C54.27 29.71 54.12 29.59 53.98 29.47C53.85 29.36 53.72 29.25 53.58 29.14C53.43 29.02 53.28 28.9 53.13 28.79C52.99 28.68 52.86 28.58 52.72 28.48C52.57 28.37 52.41 28.26 52.25 28.15C52.11 28.05 51.97 27.95 51.82 27.85C51.66 27.74 51.5 27.64 51.34 27.54C51.19 27.45 51.05 27.35 50.9 27.27C50.73 27.17 50.57 27.08 50.4 26.98C50.25 26.89 50.1 26.81 49.95 26.73C49.78 26.64 49.61 26.55 49.43 26.46C49.28 26.38 49.12 26.3 48.96 26.23C48.78 26.15 48.6 26.07 48.43 25.99C48.27 25.92 48.12 25.85 47.96 25.78C47.78 25.7 47.59 25.63 47.41 25.56C47.25 25.5 47.09 25.43 46.93 25.38C46.74 25.31 46.55 25.25 46.36 25.19C46.2 25.14 46.04 25.08 45.87 25.03C45.68 24.97 45.48 24.92 45.28 24.86C45.12 24.81 44.95 24.77 44.79 24.72C44.59 24.67 44.38 24.62 44.18 24.58C44.02 24.54 43.86 24.5 43.69 24.47C43.48 24.43 43.26 24.39 43.05 24.36C42.89 24.33 42.73 24.3 42.57 24.28C42.34 24.25 42.11 24.22 41.89 24.19C41.74 24.17 41.59 24.15 41.44 24.13C41.18 24.1 40.93 24.09 40.67 24.07C40.54 24.07 40.42 24.05 40.29 24.04C39.9 24.02 39.51 24.01 39.12 24.01C38.73 24.01 38.34 24.02 37.95 24.04C37.82 24.04 37.7 24.06 37.57 24.07C37.31 24.09 37.05 24.1 36.8 24.13C36.65 24.15 36.5 24.17 36.35 24.19C36.12 24.22 35.89 24.24 35.67 24.28C35.51 24.3 35.35 24.34 35.19 24.36C34.98 24.4 34.76 24.43 34.55 24.47C34.38 24.5 34.22 24.54 34.06 24.58C33.86 24.63 33.65 24.67 33.45 24.72C33.28 24.76 33.12 24.81 32.96 24.86C32.77 24.91 32.57 24.97 32.38 25.03C32.21 25.08 32.05 25.14 31.88 25.19C31.69 25.25 31.5 25.31 31.32 25.38C31.15 25.44 30.99 25.51 30.83 25.57C30.65 25.64 30.47 25.71 30.29 25.78C30.13 25.85 29.96 25.92 29.8 25.99C29.63 26.07 29.45 26.14 29.28 26.23C29.12 26.31 28.96 26.39 28.8 26.47C28.63 26.55 28.47 26.64 28.3 26.73C28.14 26.82 27.98 26.91 27.82 27C27.66 27.09 27.5 27.18 27.34 27.27C27.18 27.36 27.03 27.46 26.87 27.56C26.72 27.66 26.56 27.75 26.41 27.85C26.25 27.95 26.1 28.06 25.95 28.17C25.8 28.27 25.66 28.37 25.52 28.48C25.37 28.59 25.22 28.71 25.07 28.82C24.93 28.93 24.79 29.03 24.66 29.14C24.51 29.26 24.37 29.38 24.22 29.51C24.09 29.62 23.96 29.73 23.83 29.85C23.69 29.98 23.54 30.11 23.4 30.24C23.28 30.36 23.15 30.47 23.03 30.59C22.89 30.73 22.75 30.87 22.62 31.01C22.5 31.13 22.39 31.25 22.28 31.37C22.14 31.52 22.01 31.66 21.88 31.81C21.77 31.93 21.67 32.05 21.56 32.18C21.43 32.33 21.3 32.49 21.17 32.65C21.07 32.77 20.97 32.9 20.87 33.03C20.75 33.19 20.62 33.36 20.5 33.52C20.41 33.65 20.32 33.78 20.23 33.91C20.11 34.08 19.99 34.25 19.88 34.43C19.79 34.56 19.71 34.69 19.63 34.82C19.52 35 19.41 35.18 19.3 35.36C19.22 35.49 19.15 35.62 19.07 35.76C18.97 35.95 18.86 36.13 18.76 36.32C18.69 36.45 18.62 36.59 18.55 36.72C18.45 36.91 18.36 37.11 18.26 37.3C18.2 37.44 18.14 37.57 18.08 37.71C17.99 37.91 17.9 38.11 17.82 38.31C17.76 38.45 17.71 38.59 17.66 38.73C17.58 38.93 17.5 39.14 17.43 39.35C17.38 39.49 17.33 39.63 17.29 39.77C17.22 39.98 17.15 40.19 17.09 40.4C17.05 40.54 17.01 40.69 16.97 40.83C16.91 41.04 16.85 41.26 16.8 41.47C16.76 41.62 16.73 41.77 16.7 41.92C16.65 42.14 16.6 42.35 16.56 42.57C16.53 42.72 16.5 42.88 16.48 43.04C16.44 43.26 16.4 43.47 16.37 43.69C16.35 43.85 16.33 44.02 16.31 44.18C16.28 44.39 16.26 44.61 16.23 44.82C16.21 44.99 16.2 45.17 16.19 45.34C16.17 45.55 16.16 45.75 16.15 45.96C16.15 45.99 16.15 46.02 16.15 46.05C16.11 46.07 16.08 46.1 16.05 46.12C15.74 46.32 15.44 46.53 15.14 46.74C15.03 46.82 14.93 46.89 14.82 46.97C14.53 47.18 14.25 47.4 13.98 47.63C13.87 47.72 13.77 47.8 13.66 47.89C13.4 48.11 13.14 48.34 12.88 48.58C12.77 48.68 12.67 48.78 12.56 48.88C12.32 49.11 12.08 49.35 11.85 49.6L11.8 49.54ZM42.04 27.7C51.39 29.13 58.58 37.24 58.58 46.99C58.58 47.1 58.59 47.2 58.61 47.31C58.61 47.33 58.61 47.35 58.62 47.37C58.67 47.58 58.75 47.78 58.87 47.96C58.87 47.96 58.87 47.97 58.88 47.98C59.03 48.19 59.22 48.38 59.45 48.51C65.47 51.99 69.21 58.47 69.21 65.41C69.21 76.17 60.46 84.92 49.7 84.92C47.25 84.92 44.83 84.45 42.56 83.56C47.96 79.35 51.45 72.78 51.45 65.41C51.45 64.44 50.67 63.66 49.7 63.66C48.73 63.66 47.95 64.44 47.95 65.41C47.95 72.7 43.93 79.06 37.99 82.41C37.75 82.54 37.51 82.67 37.27 82.8C37.18 82.85 37.09 82.9 36.99 82.94C36.64 83.11 36.29 83.27 35.93 83.42C35.89 83.44 35.85 83.45 35.8 83.47C35.47 83.6 35.14 83.73 34.8 83.85C34.73 83.87 34.66 83.9 34.6 83.92C34.25 84.04 33.89 84.15 33.53 84.24C33.51 84.24 33.49 84.25 33.47 84.26C32.69 84.47 31.9 84.62 31.1 84.74C31.01 84.75 30.92 84.76 30.84 84.77C30.53 84.81 30.22 84.84 29.92 84.86C29.82 84.86 29.72 84.88 29.62 84.88C29.23 84.9 28.84 84.92 28.44 84.92C17.68 84.92 8.92999 76.17 8.92999 65.41C8.92999 59.45 11.69 53.84 16.28 50.17C17.26 57.12 21.39 63.36 27.56 66.93C28.4 67.41 29.47 67.13 29.95 66.29C30.43 65.45 30.15 64.38 29.31 63.9C23.29 60.42 19.55 53.94 19.55 47C19.55 36.24 28.3 27.49 39.06 27.49C40.07 27.49 41.06 27.57 42.03 27.72L42.04 27.7Z" fill="#1E1E1E"/>
<path d="M47.8 48.51C48.7665 48.51 49.55 47.7265 49.55 46.76C49.55 45.7935 48.7665 45.01 47.8 45.01C46.8335 45.01 46.05 45.7935 46.05 46.76C46.05 47.7265 46.8335 48.51 47.8 48.51Z" fill="#1E1E1E"/>
<path d="M39.07 48.51C40.0365 48.51 40.82 47.7265 40.82 46.76C40.82 45.7935 40.0365 45.01 39.07 45.01C38.1035 45.01 37.32 45.7935 37.32 46.76C37.32 47.7265 38.1035 48.51 39.07 48.51Z" fill="#1E1E1E"/>
<path d="M7.07001 12.37C10.0026 12.37 12.38 9.99263 12.38 7.06C12.38 4.12737 10.0026 1.75 7.07001 1.75C4.13738 1.75 1.76001 4.12737 1.76001 7.06C1.76001 9.99263 4.13738 12.37 7.07001 12.37Z" fill="#F0F0F0"/>
<path d="M18.08 39.67L60.6 39.67V28.33L18.08 28.33V39.67Z" fill="#F0F0F0"/>
<path d="M39.34 7.06C51.08 7.06 60.6 16.58 60.6 28.32H18.08C18.08 20.57 16 13.32 12.38 7.06H39.34Z" fill="#EA4335"/>
<path d="M0 7.06C0 10.96 3.17 14.12 7.06 14.12C9.33 14.12 11.34 13.04 12.64 11.38C15.06 16.68 16.33 22.46 16.33 28.32V39.66C16.33 40.63 17.11 41.41 18.08 41.41H60.6C61.57 41.41 62.35 40.63 62.35 39.66V28.32C62.35 15.63 52.03 5.31 39.34 5.31H13.9C13.12 2.26 10.36 0 7.06 0C3.17 0 0 3.17 0 7.06ZM19.83 30.07H58.85V37.91H19.83V30.07ZM15.3 8.81H39.34C49.51 8.81 57.88 16.63 58.77 26.57H19.8C19.55 20.4 18.02 14.34 15.3 8.81ZM3.5 7.06C3.5 5.09 5.1 3.5 7.06 3.5C9.02 3.5 10.62 5.1 10.62 7.06C10.62 9.03 9.02 10.62 7.06 10.62C5.1 10.62 3.5 9.02 3.5 7.06Z" fill="#1E1E1E"/>
<path d="M44.38 61.51C47.3126 61.51 49.69 59.1326 49.69 56.2C49.69 53.2674 47.3126 50.89 44.38 50.89C41.4474 50.89 39.07 53.2674 39.07 56.2C39.07 59.1326 41.4474 61.51 44.38 61.51Z" fill="#EA4335"/>
<path d="M44.38 63.26C40.48 63.26 37.32 60.09 37.32 56.2C37.32 52.31 40.49 49.14 44.38 49.14C48.27 49.14 51.44 52.31 51.44 56.2C51.44 60.09 48.27 63.26 44.38 63.26ZM44.38 52.63C42.41 52.63 40.82 54.23 40.82 56.19C40.82 58.15 42.42 59.75 44.38 59.75C46.34 59.75 47.94 58.15 47.94 56.19C47.94 54.23 46.34 52.63 44.38 52.63Z" fill="#1E1E1E"/>
</g>
<defs>
<clipPath id="clip0_64_81">
<rect width="72.72" height="88.41" fill="white"/>
</clipPath>
</defs>
</svg>
