<svg width="63" height="90" viewBox="0 0 63 90" fill="none" xmlns="http://www.w3.org/2000/svg">
<g clip-path="url(#clip0_63_12)">
<path d="M44.61 66.2C44.61 62.33 43.57 58.7 41.76 55.57C43.57 52.44 44.61 48.81 44.61 44.94C44.61 33.2 35.09 23.68 23.35 23.68C11.61 23.68 2.09003 33.2 2.09003 44.94C2.09003 48.81 3.13003 52.44 4.94003 55.57C3.13003 58.7 2.09003 62.33 2.09003 66.2C2.09003 77.94 11.61 87.46 23.35 87.46C35.09 87.46 44.61 77.94 44.61 66.2Z" fill="#4285F4"/>
<path d="M46.36 66.2C46.36 65.76 46.34 65.33 46.32 64.89C46.32 64.78 46.3 64.67 46.3 64.56C46.28 64.23 46.25 63.89 46.21 63.56C46.2 63.45 46.18 63.34 46.17 63.23C46.13 62.89 46.07 62.55 46.02 62.21C46 62.12 45.99 62.03 45.97 61.94C45.9 61.56 45.82 61.18 45.73 60.8C45.72 60.76 45.71 60.71 45.7 60.67C45.48 59.8 45.22 58.95 44.91 58.12C44.89 58.06 44.86 58 44.84 57.93C44.71 57.6 44.58 57.28 44.44 56.96C44.38 56.83 44.33 56.71 44.27 56.58C44.15 56.33 44.03 56.08 43.91 55.83C43.86 55.74 43.82 55.64 43.78 55.55C45.49 52.28 46.38 48.62 46.38 44.92C46.38 32.23 36.06 21.91 23.37 21.91C10.68 21.91 0.340027 32.25 0.340027 44.94C0.340027 48.64 1.24003 52.3 2.94003 55.57C2.92003 55.61 2.90003 55.65 2.89003 55.68C2.74003 55.98 2.59003 56.28 2.45003 56.58C2.39003 56.71 2.33003 56.85 2.27003 56.98C2.14003 57.27 2.02003 57.57 1.91003 57.86C1.85003 58.01 1.79003 58.17 1.74003 58.32C1.64003 58.6 1.54003 58.89 1.45003 59.17C1.39003 59.35 1.34003 59.53 1.29003 59.71C1.21003 59.98 1.13003 60.25 1.06003 60.53C1.01003 60.73 0.960027 60.94 0.920027 61.15C0.860027 61.4 0.810027 61.66 0.760027 61.91C0.710027 62.15 0.680027 62.39 0.640027 62.63C0.600027 62.86 0.560027 63.09 0.540027 63.32C0.500027 63.61 0.480027 63.91 0.450027 64.2C0.430027 64.38 0.410027 64.56 0.400027 64.75C0.370027 65.23 0.350027 65.71 0.350027 66.2C0.350027 78.89 10.67 89.21 23.36 89.21C36.05 89.21 46.37 78.89 46.37 66.2H46.36ZM3.84003 66.2C3.84003 62.78 4.74003 59.4 6.46003 56.45C6.62003 56.18 6.70003 55.88 6.70003 55.57C6.70003 55.31 6.64003 55.05 6.52003 54.81C6.50003 54.78 6.49003 54.74 6.47003 54.71C4.76003 51.75 3.85003 48.38 3.85003 44.96C3.85003 34.2 12.6 25.45 23.36 25.45C34.12 25.45 42.87 34.2 42.87 44.96C42.87 47.41 42.4 49.83 41.51 52.1C37.3 46.7 30.73 43.21 23.36 43.21C22.39 43.21 21.61 43.99 21.61 44.96C21.61 45.93 22.39 46.71 23.36 46.71C30.65 46.71 37.01 50.73 40.36 56.67C40.49 56.91 40.62 57.15 40.75 57.39C40.8 57.48 40.85 57.57 40.89 57.67C41.06 58.02 41.22 58.37 41.37 58.73C41.39 58.77 41.4 58.81 41.42 58.86C41.55 59.19 41.68 59.52 41.8 59.86C41.82 59.93 41.85 60 41.87 60.06C41.99 60.41 42.1 60.77 42.19 61.13C42.19 61.15 42.2 61.17 42.21 61.19C42.42 61.97 42.57 62.76 42.69 63.56C42.7 63.65 42.71 63.74 42.72 63.82C42.76 64.13 42.79 64.44 42.81 64.74C42.81 64.84 42.83 64.94 42.83 65.04C42.85 65.43 42.87 65.82 42.87 66.22C42.87 76.98 34.12 85.73 23.36 85.73C12.6 85.73 3.84003 76.96 3.84003 66.2Z" fill="#1E1E1E"/>
<path d="M12.87 66.75C13.8365 66.75 14.62 65.9665 14.62 65C14.62 64.0335 13.8365 63.25 12.87 63.25C11.9035 63.25 11.12 64.0335 11.12 65C11.12 65.9665 11.9035 66.75 12.87 66.75Z" fill="#1E1E1E"/>
<path d="M21.6 66.75C22.5665 66.75 23.35 65.9665 23.35 65C23.35 64.0335 22.5665 63.25 21.6 63.25C20.6335 63.25 19.85 64.0335 19.85 65C19.85 65.9665 20.6335 66.75 21.6 66.75Z" fill="#1E1E1E"/>
<path d="M55.29 12.37C58.2226 12.37 60.6 9.99263 60.6 7.06C60.6 4.12737 58.2226 1.75 55.29 1.75C52.3573 1.75 49.98 4.12737 49.98 7.06C49.98 9.99263 52.3573 12.37 55.29 12.37Z" fill="#F0F0F0"/>
<path d="M44.27 28.32H1.75V39.66H44.27V28.32Z" fill="#F0F0F0"/>
<path d="M23.01 7.06C11.27 7.06 1.75 16.58 1.75 28.32H44.27C44.27 20.57 46.35 13.32 49.97 7.06H23.01Z" fill="#EA4335"/>
<path d="M55.29 0C52 0 49.24 2.26 48.45 5.31H23.01C10.32 5.31 0 15.64 0 28.32V39.66C0 40.63 0.78 41.41 1.75 41.41H44.27C45.24 41.41 46.02 40.63 46.02 39.66V28.32C46.02 22.46 47.29 16.68 49.71 11.38C51 13.05 53.02 14.12 55.29 14.12C59.19 14.12 62.35 10.95 62.35 7.06C62.35 3.17 59.18 0 55.29 0ZM42.52 37.91H3.5V30.07H42.52V37.91ZM42.55 26.57H3.58C4.47 16.63 12.84 8.81 23.01 8.81H47.05C44.33 14.34 42.8 20.4 42.55 26.57ZM55.29 10.63C53.32 10.63 51.73 9.03 51.73 7.07C51.73 5.1 53.33 3.51 55.29 3.51C57.25 3.51 58.85 5.11 58.85 7.07C58.85 9.03 57.25 10.63 55.29 10.63Z" fill="#1E1E1E"/>
</g>
<defs>
<clipPath id="clip0_63_12">
<rect width="62.35" height="89.21" fill="white"/>
</clipPath>
</defs>
</svg>
